<svg width="31" height="31" viewBox="0 0 31 31" fill="none" xmlns="http://www.w3.org/2000/svg">
<path d="M31 31H0V3.54328H31V31ZM1.32949 29.636H29.6705V4.90725H1.32949V29.636Z" fill="black"/>
<path d="M5.79336 0.172009H4.46387V8.16411H5.79336V0.172009Z" fill="black"/>
<path d="M26.3978 0H25.0684V7.9921H26.3978V0Z" fill="black"/>
<path d="M30.2224 11.8953H0.540039V13.2593H30.2224V11.8953Z" fill="black"/>
<path d="M15.2052 20.9574C15.2052 22.7512 14.8969 24.1203 14.2805 25.0644C13.664 26.0086 12.753 26.4809 11.5476 26.4814C10.3447 26.4814 9.44111 26.0116 8.83693 25.072C8.23275 24.1324 7.93066 22.7608 7.93066 20.9574C7.93066 19.114 8.22414 17.7323 8.81108 16.8124C9.39803 15.8925 10.3265 15.4328 11.5964 15.4333C12.8274 15.4333 13.7371 15.8983 14.3255 16.8283C14.9139 17.7584 15.2072 19.1347 15.2052 20.9574ZM13.8462 20.9574C13.8462 19.4085 13.6716 18.286 13.3225 17.5899C12.9734 16.8937 12.398 16.5459 11.5964 16.5464C10.7745 16.5464 10.1837 16.8892 9.82371 17.5747C9.46376 18.2602 9.28428 19.3878 9.28527 20.9574C9.28527 22.4815 9.46721 23.5964 9.8311 24.3021C10.195 25.0078 10.7731 25.3615 11.5653 25.363C12.3532 25.363 12.93 25.0023 13.2959 24.2809C13.6617 23.5595 13.8452 22.4517 13.8462 20.9574Z" fill="black"/>
<path d="M11.5512 26.5572C10.3273 26.5572 9.39443 26.0715 8.77844 25.1137C8.16244 24.1559 7.86035 22.7646 7.86035 20.9574C7.86035 19.1077 8.16023 17.699 8.75259 16.7715C9.34495 15.844 10.3073 15.3575 11.5955 15.3575C12.8511 15.3575 13.7884 15.8387 14.3867 16.7866C14.9849 17.7346 15.2789 19.1274 15.2789 20.9543C15.2789 22.7548 14.9635 24.1506 14.3416 25.1038C13.7197 26.0571 12.778 26.5572 11.5512 26.5572ZM11.5955 15.5091C10.3605 15.5091 9.4454 15.9637 8.87593 16.8541C8.30647 17.7444 8.00807 19.1372 8.00807 20.9574C8.00807 22.7373 8.30868 24.1074 8.90178 25.0303C9.49488 25.9533 10.379 26.4057 11.5512 26.4057C12.7233 26.4057 13.6193 25.9404 14.219 25.022C14.8187 24.1036 15.1312 22.7267 15.1312 20.9574C15.1312 19.1577 14.8357 17.7816 14.2626 16.8692C13.6894 15.9569 12.7957 15.5091 11.5962 15.5091H11.5955ZM11.5659 25.4357C10.7476 25.4357 10.1426 25.0659 9.76669 24.3362C9.39739 23.6224 9.212 22.485 9.212 20.9558C9.212 19.3812 9.39591 18.2279 9.7593 17.5376C10.1286 16.8283 10.7483 16.4691 11.5955 16.4691C12.4235 16.4691 13.0269 16.8336 13.3881 17.5535C13.7411 18.2575 13.9199 19.4017 13.9199 20.9558C13.9199 22.4547 13.7323 23.5845 13.3615 24.3135C12.9833 25.0599 12.3791 25.4372 11.5659 25.4372V25.4357ZM11.5955 16.6207C10.7956 16.6207 10.2379 16.9435 9.8893 17.6058C9.54068 18.2681 9.35972 19.4032 9.35972 20.9528C9.35972 22.4577 9.54068 23.5709 9.89668 24.2627C10.2527 24.9545 10.7963 25.2811 11.5659 25.2811C12.3356 25.2811 12.8747 24.9409 13.2307 24.24C13.5868 23.539 13.7721 22.4274 13.7721 20.9528C13.7721 19.4229 13.5986 18.3006 13.2551 17.6187C12.9117 16.9367 12.3747 16.6222 11.5962 16.6222L11.5955 16.6207Z" fill="black"/>
<path d="M22.3424 23.899V26.3292H21.0794V23.899H16.1484V22.8321L20.9383 15.5939H22.3417V22.8169H23.813V23.899H22.3424ZM21.0794 17.1405C21.07 17.1709 21.0008 17.3055 20.8718 17.5444C20.7426 17.7831 20.6466 17.9506 20.5823 18.0468L17.9012 22.1008L17.5001 22.6646L17.3812 22.8162H21.0794V17.1405Z" fill="black"/>
<path d="M22.4159 26.4049H21.0051V23.9748H16.0742V22.8086L16.0868 22.7897L20.8988 15.5152H22.4159V22.7381H23.8864V23.9718H22.4159V26.4049ZM21.1529 26.2534H22.2682V23.8232H23.7387V22.8927H22.2682V15.6697H20.9763L16.2212 22.8556V23.8232H21.1521L21.1529 26.2534ZM21.1529 22.8927H17.2272L17.4421 22.6169L17.841 22.0561L20.5206 18.0044C20.5834 17.9104 20.6794 17.743 20.8065 17.5073C20.9763 17.1921 21.0051 17.1284 21.0096 17.1163L21.1529 16.695V22.8927ZM17.5337 22.7412H21.0051V17.4512C20.9852 17.4891 20.9623 17.5323 20.9357 17.5808C20.8065 17.8203 20.7082 17.9915 20.6403 18.09L17.9591 22.1433L17.5337 22.7412Z" fill="black"/>
</svg>
