<svg width="28" height="28" viewBox="0 0 28 28" fill="none" xmlns="http://www.w3.org/2000/svg">
<path d="M9.88402e-06 13.9994C-0.00217847 12.1588 0.359035 10.3358 1.06293 8.63511C1.76683 6.93439 2.79956 5.38938 4.10189 4.08869C5.40422 2.788 6.95052 1.75723 8.65209 1.05549C10.3537 0.353761 12.177 -0.00512405 14.0176 -0.000575276C21.7975 0.00357041 28.0035 6.28084 28 14.1438C27.9966 21.7505 21.6794 28.0077 14.0107 27.9994C6.23636 27.9911 9.88402e-06 21.7588 9.88402e-06 13.9994ZM14.0439 1.46838C7.17188 1.44212 1.50002 7.0395 1.46893 13.8778C1.43577 20.8343 7.00329 26.5028 13.8974 26.5318C20.8579 26.5609 26.5138 20.9683 26.5304 14.0416C26.547 7.13761 20.9428 1.49464 14.0439 1.46838Z" fill="black"/>
<path d="M13.2899 5.90966H14.7339V6.30074C14.7339 8.71906 14.7381 11.1339 14.7284 13.5502C14.7284 13.8017 14.8092 13.935 15.0262 14.0594C17.1225 15.257 19.2144 16.4614 21.3019 17.6724C21.4111 17.7352 21.5182 17.8009 21.6584 17.8838L20.924 19.1607L19.12 18.1194C17.2673 17.0517 15.4147 15.9844 13.5621 14.9176C13.3894 14.8188 13.2581 14.7324 13.2588 14.4816C13.2705 11.7178 13.2664 8.95813 13.2671 6.19641C13.2664 6.10728 13.2809 6.01814 13.2899 5.90966Z" fill="black"/>
</svg>
