<svg width="754" height="290" viewBox="0 0 754 290" fill="none" xmlns="http://www.w3.org/2000/svg">
    <path d="M30.4688 150V126.289C30.4688 118.867 28.3333 115.156 24.0625 115.156C21.849 115.156 20.0391 116.289 18.6328 118.555C17.2526 120.82 16.5625 123.75 16.5625 127.344V150H5.58594V117.188C5.58594 114.922 5.54688 113.073 5.46875 111.641C5.41667 110.182 5.35156 108.88 5.27344 107.734H15.7422C15.8203 108.229 15.9245 109.557 16.0547 111.719C16.1849 113.854 16.25 115.326 16.25 116.133H16.4062C17.7604 112.904 19.4401 110.56 21.4453 109.102C23.4766 107.643 25.8984 106.914 28.7109 106.914C35.1693 106.914 39.0885 109.987 40.4688 116.133H40.7031C42.1354 112.852 43.8542 110.495 45.8594 109.062C47.8646 107.63 50.4167 106.914 53.5156 106.914C57.6302 106.914 60.7682 108.32 62.9297 111.133C65.0911 113.919 66.1719 117.93 66.1719 123.164V150H55.2734V126.289C55.2734 118.867 53.138 115.156 48.8672 115.156C46.7318 115.156 44.974 116.198 43.5938 118.281C42.2396 120.339 41.4974 123.19 41.3672 126.836V150H30.4688ZM76.7578 100.117V92.0312H87.7344V100.117H76.7578ZM76.7578 150V107.734H87.7344V150H76.7578ZM134.648 137.656C134.648 141.745 132.969 144.961 129.609 147.305C126.276 149.622 121.654 150.781 115.742 150.781C109.935 150.781 105.482 149.87 102.383 148.047C99.3099 146.198 97.2656 143.333 96.25 139.453L105.898 138.008C106.445 140.013 107.383 141.432 108.711 142.266C110.065 143.099 112.409 143.516 115.742 143.516C118.815 143.516 121.055 143.125 122.461 142.344C123.867 141.562 124.57 140.339 124.57 138.672C124.57 137.318 123.997 136.25 122.852 135.469C121.732 134.661 119.818 133.984 117.109 133.438C110.911 132.214 106.732 131.081 104.57 130.039C102.409 128.971 100.755 127.604 99.6094 125.938C98.4896 124.245 97.9297 122.174 97.9297 119.727C97.9297 115.69 99.4792 112.552 102.578 110.312C105.703 108.047 110.117 106.914 115.82 106.914C120.846 106.914 124.883 107.891 127.93 109.844C131.003 111.797 132.917 114.622 133.672 118.32L123.945 119.336C123.633 117.617 122.865 116.341 121.641 115.508C120.417 114.648 118.477 114.219 115.82 114.219C113.216 114.219 111.263 114.557 109.961 115.234C108.659 115.885 108.008 116.992 108.008 118.555C108.008 119.779 108.503 120.755 109.492 121.484C110.508 122.188 112.201 122.773 114.57 123.242C117.878 123.919 120.807 124.622 123.359 125.352C125.938 126.055 127.995 126.901 129.531 127.891C131.094 128.88 132.331 130.156 133.242 131.719C134.18 133.255 134.648 135.234 134.648 137.656ZM143.555 150V92.0312H154.531V150H143.555ZM165.82 100.117V92.0312H176.797V100.117H165.82ZM165.82 150V107.734H176.797V150H165.82ZM45.5859 208.711C45.5859 215.69 44.1797 221.12 41.3672 225C38.5807 228.854 34.5833 230.781 29.375 230.781C26.3802 230.781 23.7891 230.13 21.6016 228.828C19.4141 227.526 17.7344 225.651 16.5625 223.203H16.4844C16.4844 224.115 16.4193 225.365 16.2891 226.953C16.1849 228.542 16.0677 229.557 15.9375 230H5.27344C5.48177 227.578 5.58594 224.362 5.58594 220.352V172.031H16.5625V188.203L16.4062 195.078H16.5625C19.0365 189.661 23.5417 186.953 30.0781 186.953C35.0781 186.953 38.9062 188.854 41.5625 192.656C44.2448 196.432 45.5859 201.784 45.5859 208.711ZM34.1406 208.711C34.1406 203.919 33.4375 200.365 32.0312 198.047C30.625 195.729 28.4505 194.57 25.5078 194.57C22.5391 194.57 20.2734 195.82 18.7109 198.32C17.1745 200.794 16.4062 204.375 16.4062 209.062C16.4062 213.542 17.1615 217.031 18.6719 219.531C20.2083 222.031 22.4609 223.281 25.4297 223.281C31.237 223.281 34.1406 218.424 34.1406 208.711ZM64.8438 187.734V211.445C64.8438 218.867 67.3438 222.578 72.3438 222.578C75 222.578 77.1354 221.445 78.75 219.18C80.3906 216.888 81.2109 213.958 81.2109 210.391V187.734H92.1875V220.547C92.1875 224.141 92.2917 227.292 92.5 230H82.0312C81.7188 226.25 81.5625 223.451 81.5625 221.602H81.3672C79.9089 224.805 78.0469 227.135 75.7812 228.594C73.5417 230.052 70.8724 230.781 67.7734 230.781C63.2943 230.781 59.8568 229.414 57.4609 226.68C55.0651 223.919 53.8672 219.883 53.8672 214.57V187.734H64.8438ZM130.781 230C130.677 229.609 130.547 228.633 130.391 227.07C130.26 225.482 130.195 224.167 130.195 223.125H130.039C127.669 228.229 123.164 230.781 116.523 230.781C111.602 230.781 107.799 228.867 105.117 225.039C102.435 221.185 101.094 215.807 101.094 208.906C101.094 201.901 102.5 196.497 105.312 192.695C108.151 188.867 112.161 186.953 117.344 186.953C120.339 186.953 122.917 187.578 125.078 188.828C127.266 190.078 128.945 191.94 130.117 194.414H130.195L130.117 187.461V172.031H141.094V220.781C141.094 223.385 141.198 226.458 141.406 230H130.781ZM130.273 208.633C130.273 204.076 129.505 200.573 127.969 198.125C126.458 195.651 124.219 194.414 121.25 194.414C118.307 194.414 116.12 195.612 114.688 198.008C113.255 200.378 112.539 204.01 112.539 208.906C112.539 218.49 115.417 223.281 121.172 223.281C124.062 223.281 126.302 222.018 127.891 219.492C129.479 216.94 130.273 213.32 130.273 208.633ZM162.656 187.734V211.445C162.656 218.867 165.156 222.578 170.156 222.578C172.812 222.578 174.948 221.445 176.562 219.18C178.203 216.888 179.023 213.958 179.023 210.391V187.734H190V220.547C190 224.141 190.104 227.292 190.312 230H179.844C179.531 226.25 179.375 223.451 179.375 221.602H179.18C177.721 224.805 175.859 227.135 173.594 228.594C171.354 230.052 168.685 230.781 165.586 230.781C161.107 230.781 157.669 229.414 155.273 226.68C152.878 223.919 151.68 219.883 151.68 214.57V187.734H162.656ZM218.828 230.781C212.422 230.781 207.474 228.88 203.984 225.078C200.495 221.25 198.75 215.924 198.75 209.102C198.75 202.122 200.508 196.693 204.023 192.812C207.539 188.906 212.526 186.953 218.984 186.953C223.958 186.953 228.073 188.203 231.328 190.703C234.583 193.203 236.628 196.654 237.461 201.055L226.406 201.602C226.094 199.44 225.312 197.721 224.062 196.445C222.812 195.143 221.042 194.492 218.75 194.492C213.099 194.492 210.273 199.219 210.273 208.672C210.273 218.411 213.151 223.281 218.906 223.281C220.99 223.281 222.734 222.63 224.141 221.328C225.547 220 226.419 218.034 226.758 215.43L237.773 215.938C237.383 218.828 236.341 221.406 234.648 223.672C232.982 225.938 230.781 227.695 228.047 228.945C225.312 230.169 222.24 230.781 218.828 230.781ZM213.047 183.789V182.578L222.891 171.328H232.969V173.008L219.688 183.789H213.047ZM273.125 230V206.289C273.125 198.867 270.612 195.156 265.586 195.156C262.93 195.156 260.781 196.302 259.141 198.594C257.526 200.859 256.719 203.776 256.719 207.344V230H245.742V197.188C245.742 194.922 245.703 193.073 245.625 191.641C245.573 190.182 245.508 188.88 245.43 187.734H255.898C255.977 188.229 256.081 189.557 256.211 191.719C256.341 193.854 256.406 195.326 256.406 196.133H256.562C258.047 192.904 259.909 190.56 262.148 189.102C264.388 187.643 267.057 186.914 270.156 186.914C274.635 186.914 278.073 188.294 280.469 191.055C282.865 193.815 284.062 197.852 284.062 203.164V230H273.125ZM334.805 208.828C334.805 215.677 332.904 221.055 329.102 224.961C325.299 228.841 320.039 230.781 313.32 230.781C306.732 230.781 301.562 228.828 297.812 224.922C294.062 221.016 292.188 215.651 292.188 208.828C292.188 202.031 294.062 196.693 297.812 192.812C301.562 188.906 306.81 186.953 313.555 186.953C320.456 186.953 325.716 188.841 329.336 192.617C332.982 196.367 334.805 201.771 334.805 208.828ZM323.32 208.828C323.32 203.802 322.5 200.156 320.859 197.891C319.219 195.625 316.836 194.492 313.711 194.492C307.044 194.492 303.711 199.271 303.711 208.828C303.711 213.542 304.518 217.135 306.133 219.609C307.773 222.057 310.13 223.281 313.203 223.281C319.948 223.281 323.32 218.464 323.32 208.828ZM379.18 217.656C379.18 221.745 377.5 224.961 374.141 227.305C370.807 229.622 366.185 230.781 360.273 230.781C354.466 230.781 350.013 229.87 346.914 228.047C343.841 226.198 341.797 223.333 340.781 219.453L350.43 218.008C350.977 220.013 351.914 221.432 353.242 222.266C354.596 223.099 356.94 223.516 360.273 223.516C363.346 223.516 365.586 223.125 366.992 222.344C368.398 221.562 369.102 220.339 369.102 218.672C369.102 217.318 368.529 216.25 367.383 215.469C366.263 214.661 364.349 213.984 361.641 213.438C355.443 212.214 351.263 211.081 349.102 210.039C346.94 208.971 345.286 207.604 344.141 205.938C343.021 204.245 342.461 202.174 342.461 199.727C342.461 195.69 344.01 192.552 347.109 190.312C350.234 188.047 354.648 186.914 360.352 186.914C365.378 186.914 369.414 187.891 372.461 189.844C375.534 191.797 377.448 194.622 378.203 198.32L368.477 199.336C368.164 197.617 367.396 196.341 366.172 195.508C364.948 194.648 363.008 194.219 360.352 194.219C357.747 194.219 355.794 194.557 354.492 195.234C353.19 195.885 352.539 196.992 352.539 198.555C352.539 199.779 353.034 200.755 354.023 201.484C355.039 202.188 356.732 202.773 359.102 203.242C362.409 203.919 365.339 204.622 367.891 205.352C370.469 206.055 372.526 206.901 374.062 207.891C375.625 208.88 376.862 210.156 377.773 211.719C378.711 213.255 379.18 215.234 379.18 217.656ZM398.906 230.703C395.677 230.703 393.19 229.831 391.445 228.086C389.701 226.315 388.828 223.646 388.828 220.078V195.156H383.477V187.734H389.375L392.812 177.812H399.688V187.734H407.695V195.156H399.688V217.109C399.688 219.167 400.078 220.69 400.859 221.68C401.641 222.643 402.852 223.125 404.492 223.125C405.352 223.125 406.576 222.943 408.164 222.578V229.375C405.456 230.26 402.37 230.703 398.906 230.703ZM426.914 213.359H417.93L416.68 174.961H428.164L426.914 213.359ZM416.68 230V219.453H427.93V230H416.68Z" fill="black"/>
    <g clip-path="url(#clip0)" class="clip1">
        <path d="M496.94 157.88C537.224 157.88 569.88 125.224 569.88 84.94C569.88 44.6564 537.224 12 496.94 12C456.656 12 424 44.6564 424 84.94C424 125.224 456.656 157.88 496.94 157.88Z" fill="#F04927"/>
        <path d="M520.09 121.52C516.317 121.52 512.591 120.681 509.182 119.064C505.773 117.447 502.767 115.092 500.38 112.17C499.31 110.86 498.19 109.44 497 108C491.2 100.56 484 91.35 476.79 88.73C472 87 464.9 88.94 460.7 93.23C457.4 96.6 456.47 100.73 458.08 104.87C461.94 114.81 471.55 117.38 475.66 118.47L476.9 118.82C478.415 119.327 479.957 119.748 481.52 120.08L481.32 121.08C479.72 120.742 478.14 120.312 476.59 119.79L475.4 119.46C471.51 118.46 461.19 115.67 457.14 105.26C455.38 100.73 456.39 96.26 459.99 92.55C464.44 88 472 85.9 477.13 87.79C484.57 90.51 491.91 99.79 497.81 107.34C498.97 108.81 500.09 110.23 501.16 111.54C504.123 115.17 508.068 117.871 512.523 119.321C516.979 120.772 521.758 120.91 526.29 119.72C529.78 118.8 534.2 115.81 535.69 111.45C536.69 108.45 536.07 105.19 533.75 102.17C533.164 101.421 532.453 100.779 531.65 100.27C528.992 101.994 526.07 103.271 523 104.05L522.74 103.05C525.531 102.335 528.195 101.195 530.64 99.67C527.855 98.4407 524.93 97.5575 521.93 97.04C515.39 95.6 508.62 94.11 507.5 87.46C506.01 78.68 509.64 74.46 512.95 72.46C519.66 68.46 530.04 70.27 533.95 73.28C541.35 78.95 539.7 87.94 538.65 91.55C537.544 94.8459 535.382 97.6856 532.5 99.63C533.26 100.153 533.935 100.79 534.5 101.52C537.02 104.82 537.75 108.35 536.59 111.73C534.98 116.45 530.23 119.66 526.5 120.64C524.41 121.209 522.256 121.505 520.09 121.52ZM522.42 71.14C519.276 71.0565 516.168 71.8198 513.42 73.35C509.06 75.98 507.34 80.81 508.42 87.35C509.42 93.35 515.58 94.7 522.08 96.13C525.44 96.87 528.87 97.62 531.51 99.13C534.361 97.2941 536.518 94.5598 537.64 91.36C538.64 87.95 540.2 79.45 533.29 74.16C531.18 72.44 526.88 71.14 522.42 71.14Z" fill="#0E0B0A"/>
        <path d="M507.55 101.76C505.813 100.789 504.175 99.65 502.66 98.36C500.916 96.8716 499.303 95.2355 497.84 93.47L498.6 92.83C500.032 94.5478 501.607 96.1402 503.31 97.59C504.759 98.8444 506.33 99.95 508 100.89L507.55 101.76Z" fill="#0E0B0A"/>
        <path d="M471.54 105.18C466.64 105.18 461.01 103.71 457.46 99.87C450.71 92.58 448.79 78.58 453.58 71.6C453.953 71.0447 454.357 70.5105 454.79 70C453.942 68.037 453.434 65.9436 453.29 63.81C453.16 61.4326 453.539 59.0549 454.401 56.8355C455.264 54.6162 456.589 52.6063 458.29 50.94C459.88 49.313 461.812 48.0612 463.947 47.2758C466.082 46.4904 468.365 46.1912 470.63 46.4C479.63 47.22 481.49 52 483.8 58.04C484.86 61.0582 486.199 63.9709 487.8 66.74C489.189 69.0505 491.179 70.94 493.559 72.2065C495.939 73.4729 498.618 74.0687 501.31 73.93C502.044 73.8742 502.773 73.7605 503.49 73.59C498.33 64 495.75 50.05 495.6 49.23L496.6 49.05C496.6 49.25 499.31 63.78 504.5 73.31C508.37 72.05 511.5 68.98 513.44 64.55C516.32 57.81 520.33 53.39 525.04 51.77C526.809 51.1792 528.685 50.9761 530.54 51.1745C532.395 51.3729 534.186 51.9682 535.79 52.92C537.106 53.6507 538.252 54.6525 539.152 55.8593C540.052 57.066 540.685 58.4501 541.01 59.92C542.17 64.55 541.01 70.25 537.77 75.18C532.35 83.53 521.93 86.18 511.23 81.96C508.43 80.82 506 78 504 74.5C503.142 74.7216 502.265 74.8622 501.38 74.92C498.514 75.0677 495.661 74.4329 493.128 73.0836C490.595 71.7342 488.477 69.7211 487 67.26C485.366 64.4391 483.997 61.4731 482.91 58.4C480.56 52.23 479.01 48.16 470.59 47.4C468.46 47.1999 466.312 47.4816 464.306 48.2242C462.3 48.9668 460.486 50.1514 459 51.69C457.397 53.249 456.145 55.1321 455.327 57.2135C454.51 59.2949 454.146 61.5267 454.26 63.76C454.396 65.6405 454.821 67.4889 455.52 69.24C458.586 66.1229 462.578 64.0812 466.9 63.42C469.548 63.079 472.238 63.2999 474.795 64.0684C477.352 64.8369 479.719 66.1356 481.74 67.88C487 72.17 489.29 76.78 491.5 81.25L490.6 81.69C488.34 77.12 486.2 72.81 481.11 68.69C479.196 67.0171 476.948 65.7704 474.515 65.0325C472.083 64.2946 469.521 64.0824 467 64.41C462.789 65.0693 458.918 67.1138 456 70.22C459 76.07 465.38 77 471.57 77.91C477.76 78.82 484.37 79.79 486.57 86.18C488.66 92.18 485.83 101.04 478.42 104.03C476.217 104.833 473.885 105.223 471.54 105.18ZM455.28 71C454.96 71.39 454.67 71.77 454.41 72.15C449.84 78.79 451.72 92.15 458.19 99.15C463.37 104.74 473.19 105.01 478.05 103.06C484.94 100.28 487.57 92.06 485.63 86.47C483.63 80.65 477.69 79.78 471.41 78.86C465.32 78 458.61 77 455.28 71ZM505 74.2C506.89 77.45 509.09 80 511.59 80.99C521.84 85.05 531.78 82.53 536.93 74.59C539.93 69.9 541.14 64.49 540.04 60.12C539.741 58.7916 539.165 57.5411 538.35 56.4504C537.535 55.3596 536.499 54.4531 535.31 53.79C533.818 52.9032 532.153 52.3485 530.427 52.1639C528.701 51.9792 526.956 52.1689 525.31 52.72C520.88 54.24 517.08 58.47 514.31 64.95C512.36 69.58 509.05 72.81 505 74.2Z" fill="#0E0B0A"/>
        <path d="M495.42 90.24C494.102 88.6287 492.974 86.8704 492.06 85L492.97 84.57C493.846 86.3536 494.923 88.0312 496.18 89.57L495.42 90.24Z" fill="#0E0B0A"/>
        <path d="M517.28 104.61C515.283 104.606 513.309 104.19 511.48 103.39L511.92 102.49C514.081 103.402 516.439 103.746 518.77 103.49L518.89 104.49C518.356 104.564 517.819 104.604 517.28 104.61Z" fill="#0E0B0A"/>
        <path d="M494.45 52.27L493.64 51.68L495.95 48.5L499.41 50.6L498.89 51.45L496.22 49.83L494.45 52.27Z" fill="#0E0B0A"/>
        <path d="M478.12 122.78L477.72 121.86L480.88 120.49L479.7 117.54L480.62 117.17L482.16 121.02L478.12 122.78Z" fill="#0E0B0A"/>
    </g>
    <g clip-path="url(#clip1)" class="clip2">
        <path d="M716.3 284.156C747.21 270.632 761.398 234.825 747.99 204.178C734.581 173.531 698.654 159.649 667.744 173.173C636.834 186.697 622.646 222.504 636.054 253.151C649.463 283.798 685.39 297.679 716.3 284.156Z" fill="#989A37"/>
        <path d="M687.81 235.24L690.1 180.16L691.1 180.2L688.87 233.68L731.8 214.67L732.2 215.58L687.81 235.24Z" fill="#0E0B0A"/>
        <path d="M688.18 234.7C688.09 234.698 688.002 234.675 687.922 234.633C687.842 234.592 687.773 234.532 687.72 234.46L670 210L670.81 209.41L687.1 231.88L676.76 195.21L677.76 194.94L688.84 234.38L688.43 234.64C688.352 234.679 688.267 234.699 688.18 234.7Z" fill="#0E0B0A"/>
        <path d="M688.57 267.92L687.82 233.45L722.38 259.18L721.78 259.98L688.86 235.47L689.57 267.9L688.57 267.92Z" fill="#0E0B0A"/>
        <path d="M734.03 241.36L687.2 234.81L701.72 221.84L702.38 222.59L689.48 234.11L734.17 240.37L734.03 241.36Z" fill="#0E0B0A"/>
        <path d="M657.16 249.13L656.75 248.22L688.04 234.05L708.94 211.38L709.68 212.05L688.64 234.87L688.55 234.92L657.16 249.13Z" fill="#0E0B0A"/>
        <path d="M688.118 234.079L661.348 258.447L662.021 259.186L688.791 234.818L688.118 234.079Z" fill="#0E0B0A"/>
    </g>
    <g clip-path="url(#clip2)" class="clip3">
        <path d="M686.058 199.131C738.991 175.948 763.289 114.57 740.328 62.0376C717.368 9.50551 655.844 -14.2872 602.911 8.89515C549.978 32.0775 525.68 93.4562 548.641 145.988C571.601 198.52 633.125 222.313 686.058 199.131Z" fill="#A1B2DC"/>
        <path d="M647.131 187.053L646.601 186.835L648.667 181.894L644.14 181.5L641.978 186.604L641.447 186.386L643.514 181.445L638.796 181.037V180.479L643.718 180.901L645.567 176.477L640.129 176.001V175.443L645.69 175.933L647.824 170.829L648.355 171.047L646.274 175.987L650.802 176.382L652.937 171.278L653.467 171.496L651.387 176.423L656.119 176.845V177.403L651.224 176.981L649.375 181.404L654.813 181.881V182.439L649.252 181.949L647.131 187.053ZM644.412 180.955L648.912 181.35L650.761 176.94L646.234 176.545L644.412 180.955Z" fill="#010101"/>
        <path d="M671.062 184.821L657.261 173.823L659.776 186.971L659.164 187.094L656.295 172.122L660.035 171.401L673.836 182.384L671.32 169.223L671.946 169.114L674.801 184.086L671.062 184.821Z" fill="#010101"/>
        <path d="M676.215 175.756L677.711 178.9L688.847 173.578L690.478 177.022L678.812 182.602L672.245 168.855L683.925 163.261L685.556 166.705L674.434 172.027L675.943 175.184L685.461 170.638L685.733 171.21L676.215 175.756Z" fill="#010101"/>
        <path d="M694.354 174.545L693.85 174.953L684.197 163.166L690.234 158.212C694.721 154.537 696.026 156.075 697.848 158.307L698.487 159.083C698.732 159.424 698.906 159.811 698.999 160.221C699.092 160.63 699.102 161.054 699.029 161.468C698.955 161.882 698.799 162.276 698.571 162.629C698.343 162.981 698.046 163.284 697.698 163.52L690.302 169.59L694.354 174.545ZM689.907 169.1L697.304 163.03C697.583 162.849 697.823 162.615 698.011 162.341C698.199 162.068 698.331 161.759 698.399 161.434C698.467 161.109 698.47 160.773 698.408 160.447C698.347 160.12 698.221 159.81 698.038 159.532C697.019 158.28 695.428 158.879 694.136 159.94L687.12 165.698L689.907 169.1Z" fill="#010101"/>
        <path d="M709.813 151.597L710.955 150.086L711.459 150.467L710.316 151.978L713.811 154.7L713.43 155.204L709.963 152.441L703.396 161.084L702.743 160.58L699.208 148.698L701.737 145.363L709.813 151.597ZM709.433 152.1L702.294 146.656L705.449 157.313L709.433 152.1Z" fill="#010101"/>
        <path d="M665.093 110.479L674.012 106.572L675.236 109.295L666.316 113.201L674.828 132.678L671.85 134.039L663.339 114.576L612.227 136.965L610.623 133.304L625.661 73.893L645.363 65.3318L665.093 110.479ZM662.115 111.84L644.792 72.1372L631.195 125.396L662.115 111.84Z" fill="black"/>
        <path d="M576.93 125.001L577.922 128.459L565.236 132.106L580.193 136.189L581.376 140.273L564.148 135.509L563.115 132.025L575.733 128.391L560.885 124.307L559.892 120.85L574.536 116.631L574.713 117.243L562.027 120.905L576.93 125.001Z" fill="#010101"/>
        <path d="M558.642 115.447C558.662 115.675 558.637 115.905 558.568 116.123C558.499 116.342 558.387 116.544 558.239 116.719C558.091 116.894 557.909 117.037 557.706 117.141C557.502 117.245 557.279 117.308 557.051 117.325C556.818 117.353 556.582 117.333 556.356 117.268C556.131 117.202 555.922 117.091 555.74 116.943C555.559 116.794 555.409 116.61 555.301 116.402C555.192 116.193 555.127 115.965 555.108 115.731C555.09 115.497 555.119 115.262 555.194 115.039C555.269 114.817 555.388 114.612 555.544 114.436C555.7 114.261 555.89 114.119 556.102 114.019C556.314 113.919 556.544 113.863 556.779 113.854C557.006 113.836 557.234 113.862 557.451 113.932C557.667 114.002 557.868 114.115 558.041 114.263C558.214 114.411 558.356 114.591 558.459 114.795C558.562 114.998 558.624 115.219 558.642 115.447ZM575.352 113.841V114.467L560.164 115.692V115.052L575.352 113.841Z" fill="#010101"/>
        <path d="M566.297 95.0305L566.405 95.9424C565.486 96.7731 564.757 97.7933 564.269 98.9328C563.781 100.072 563.545 101.304 563.577 102.544L563.496 103.714C563.36 106.082 563.754 110.247 565.508 110.356C566.419 110.356 566.868 109.308 567.14 105.375L567.507 99.4812C567.588 98.1201 567.901 95.5341 570.022 95.6702C573.041 95.8471 575.842 98.9504 575.57 103.51C575.257 108.492 572.633 110.751 568.975 111.608L568.853 110.696C569.786 109.874 570.527 108.856 571.025 107.716C571.523 106.575 571.766 105.34 571.735 104.095L571.817 102.925C571.967 100.352 571.395 96.4596 569.75 96.3643C568.105 96.269 568.132 98.8823 567.942 102.081L567.643 106.926C567.52 108.954 567.167 111.159 565.236 111.01C563.305 110.86 559.362 108.628 559.716 102.843C559.695 100.968 560.349 99.147 561.556 97.7131C562.764 96.2792 564.446 95.3272 566.297 95.0305Z" fill="#010101"/>
        <path d="M578.955 83.9921L575.95 95.5341L561.211 91.6822L561.374 91.0697L572.429 93.9144L575.352 83.0258L578.955 83.9921Z" fill="#010101"/>
        <path d="M564.284 76.1387C564.162 76.4655 563.946 76.7485 563.662 76.9515C563.379 77.1545 563.041 77.2684 562.693 77.2787C562.344 77.2889 562.001 77.195 561.706 77.0089C561.411 76.8228 561.178 76.5531 561.037 76.234C560.896 75.9149 560.854 75.561 560.914 75.2175C560.975 74.8739 561.137 74.5563 561.379 74.3051C561.621 74.0539 561.932 73.8805 562.272 73.8071C562.613 73.7337 562.968 73.7636 563.292 73.8929C563.718 74.0631 564.06 74.3935 564.246 74.8132C564.431 75.233 564.445 75.7088 564.284 76.1387ZM580.002 81.8825L579.785 82.4813L565.562 77.037L565.794 76.4382L580.002 81.8825Z" fill="#010101"/>
        <path d="M590.513 63.4535L585.36 70.2589L573.245 61.0308L577.977 54.8106C581.417 50.2919 582.831 51.2038 585.808 53.4496C586.121 53.7479 586.356 54.1188 586.491 54.5296C586.626 54.9404 586.658 55.3782 586.583 55.8042C587.031 55.4237 587.589 55.1983 588.174 55.1615C588.76 55.1247 589.342 55.2785 589.833 55.6001C592.335 57.5328 594.035 58.8258 590.513 63.4535ZM576.712 62.8002L579.431 64.9234L585.237 57.2878C585.89 56.4303 586.461 54.8243 585.455 54.062C584.449 53.2998 582.926 54.5384 582.137 55.5728L576.712 62.8002ZM588.691 59.6425C589.901 58.05 590.051 56.6345 589.262 56.0084C588.215 55.2054 586.692 56.512 586.23 57.1109L580.002 65.2773L582.722 67.387L588.691 59.6425Z" fill="#010101"/>
        <path d="M584.952 46.4128L589.765 51.9388C591.315 53.7218 594.796 53.3951 597.515 51.0269C600.235 48.6586 601.051 45.2559 599.501 43.4593L594.687 37.9197L595.163 37.5114L599.949 42.9557C602.478 45.8684 603.403 50.8907 599.949 53.8443C596.496 56.7978 591.642 55.0829 589.194 52.2654L584.408 46.8211L584.952 46.4128Z" fill="#010101"/>
        <path d="M597.91 35.5105L604.246 31.9445C605.112 31.3931 606.084 31.0283 607.099 30.8732C608.114 30.7182 609.149 30.7763 610.141 31.0438C611.132 31.3114 612.057 31.7826 612.856 32.4274C613.655 33.0722 614.312 33.8765 614.784 34.7891C617.136 38.9813 615.681 43.0237 611.711 45.2422L605.375 48.8082L597.91 35.5105ZM600.316 38.5185L604.042 45.1742L609.834 41.9212C612.472 40.4376 615.654 37.5113 614.267 35.0341C612.88 32.557 608.828 33.673 606.109 35.2655L600.316 38.5185Z" fill="#010101"/>
        <path d="M614.607 26.7179L616.796 33.7139C617.503 35.9733 620.875 37.0757 624.261 36.0005C627.647 34.9252 629.822 32.135 629.115 29.862L626.926 22.8661L627.524 22.6755L629.74 29.6443C630.896 33.3192 629.74 38.2871 625.43 39.6346C621.12 40.982 617.299 37.4296 616.143 33.8636L613.968 26.9085L614.607 26.7179Z" fill="#010101"/>
        <path d="M639.258 20.8653L640.088 20.7973C641.895 20.6082 643.713 21.0456 645.238 22.0364C646.762 23.0273 647.901 24.5116 648.464 26.2416L647.485 26.5138C646.531 25.7417 645.431 25.1722 644.25 24.8399C643.07 24.5076 641.834 24.4195 640.618 24.5811L639.449 24.6764C635.37 25.003 632.201 27.1127 632.392 29.3993C632.582 31.6859 636.077 33.2239 640.115 32.9109L641.284 32.802C642.518 32.7837 643.734 32.5107 644.857 32.0002C645.98 31.4896 646.986 30.7524 647.811 29.8348L648.776 29.9437C648.488 31.733 647.597 33.3697 646.252 34.5827C644.906 35.7957 643.187 36.512 641.379 36.613L640.55 36.6811C639.478 36.8344 638.386 36.7665 637.341 36.4816C636.296 36.1967 635.32 35.7008 634.473 35.0244C633.627 34.348 632.928 33.5055 632.418 32.5485C631.909 31.5916 631.601 30.5405 631.513 29.4599C631.425 28.3793 631.558 27.2921 631.905 26.2651C632.252 25.2381 632.806 24.293 633.531 23.488C634.257 22.683 635.139 22.035 636.124 21.584C637.109 21.133 638.175 20.8884 639.258 20.8653Z" fill="#010101"/>
        <path d="M662.482 37.7835L653.399 22.6619L651.156 35.8644L650.53 35.7555L653.087 20.7836L656.839 21.4233L665.922 36.5449L668.166 23.3425L668.791 23.4513L666.235 38.4232L662.482 37.7835Z" fill="#010101"/>
        <path d="M682.048 28.1607C683.05 28.5499 683.963 29.1387 684.732 29.8916C685.5 30.6445 686.107 31.5457 686.517 32.5407C686.927 33.5356 687.131 34.6034 687.117 35.6795C687.102 36.7557 686.869 37.8176 686.432 38.801C685.995 39.7843 685.364 40.6687 684.575 41.4004C683.787 42.1321 682.858 42.6959 681.846 43.0576C680.833 43.4194 679.758 43.5715 678.685 43.5049C677.612 43.4382 676.563 43.1541 675.603 42.6698L674.842 42.3295C673.891 41.905 673.033 41.2972 672.317 40.5407C671.601 39.7843 671.04 38.8941 670.668 37.9209C670.295 36.9477 670.118 35.9106 670.146 34.8688C670.174 33.8271 670.406 32.801 670.831 31.8492C671.255 30.8974 671.862 30.0386 672.618 29.3217C673.373 28.6048 674.262 28.0439 675.235 27.6711C676.207 27.2982 677.243 27.1207 678.284 27.1487C679.324 27.1766 680.349 27.4095 681.3 27.834L682.048 28.1607ZM677.33 39.2671C681.028 40.914 684.849 40.6281 685.774 38.4913C686.698 36.3544 684.414 33.3736 680.688 31.6859L679.614 31.2095C675.902 29.5626 672.082 29.8484 671.17 31.9581C670.259 34.0678 672.53 37.103 676.269 38.7635L677.33 39.2671Z" fill="#010101"/>
        <path d="M702.213 48.4816L701.383 48.0597C701.221 46.8307 700.792 45.652 700.127 44.6059C699.463 43.5598 698.578 42.6714 697.535 42.0029L696.611 41.2815C694.734 39.8252 691.063 37.8108 689.989 39.2127C689.431 39.934 690.07 40.9549 693.184 43.364L697.848 46.9708C698.949 47.8283 700.894 49.516 699.588 51.2038C697.739 53.5993 693.606 54.1709 690.002 51.3807C686.059 48.3319 685.692 44.8475 687.066 41.404L687.881 41.8123C688.036 43.0477 688.459 44.234 689.122 45.2876C689.784 46.3412 690.67 47.2364 691.716 47.91L692.64 48.6313C694.666 50.2102 698.202 51.9252 699.221 50.6185C700.241 49.3119 697.998 47.8964 695.468 45.8684L691.621 42.9012C690.03 41.6626 688.398 40.179 689.581 38.6002C690.764 37.0213 694.857 35.075 699.466 38.6002C701.033 39.6424 702.173 41.2144 702.678 43.0289C703.182 44.8434 703.017 46.779 702.213 48.4816Z" fill="#010101"/>
        <path d="M710.276 54.797L701.492 62.106L701.098 61.6296L709.881 54.307L705.231 48.713L708.155 46.2767L717.876 57.9683L714.939 60.4047L710.276 54.797Z" fill="#010101"/>
        <path d="M638.415 17.4218L637.926 16.9454L645.037 9.6228L645.527 10.0992L638.415 17.4218Z" fill="#231F20"/>
    </g>
    <defs>
        <clipPath id="clip0">
            <rect width="145.89" height="145.89" fill="white" transform="translate(424 12)"/>
        </clipPath>
        <clipPath id="clip1">
            <rect width="122.04" height="121.33" fill="white" transform="translate(631 168)"/>
        </clipPath>
        <clipPath id="clip2">
            <rect width="209" height="208" fill="white" transform="translate(540)"/>
        </clipPath>
    </defs>
</svg>
