<svg width="135" height="25" viewBox="0 0 135 25" fill="none" xmlns="http://www.w3.org/2000/svg">
<path d="M127.335 19.3711H121.025V14.7003H127.335C127.941 14.7197 128.517 14.9742 128.939 15.4101C129.361 15.8459 129.597 16.4289 129.597 17.0357C129.597 17.6424 129.361 18.2254 128.939 18.6613C128.517 19.0971 127.941 19.3517 127.335 19.3711ZM128.51 7.27005C128.506 7.77758 128.321 8.26704 127.99 8.65182C127.659 9.03659 127.203 9.29188 126.702 9.3725H121.025V5.13655H126.377C126.941 5.14092 127.481 5.36711 127.881 5.76627C128.28 6.16544 128.506 6.70556 128.51 7.27005ZM132.214 11.1309C132.913 10.0758 133.312 8.85116 133.37 7.58713C133.429 6.3231 133.143 5.06693 132.544 3.95215C131.946 2.83737 131.056 1.90564 129.97 1.256C128.884 0.606366 127.642 0.263101 126.377 0.262695H119.708H115.646V24.706H127.321C128.899 24.7059 130.439 24.2187 131.73 23.3109C133.02 22.403 134 21.1189 134.533 19.6338C135.067 18.1487 135.13 16.535 134.712 15.0132C134.294 13.4913 133.417 12.1355 132.2 11.1309" fill="#FCFAF5"/>
<path d="M80.2115 0.293945V9.35597H71.6575V0.293945H66.3985V24.7062H71.6575V14.7005H80.2115V24.7062H85.4705V0.293945H80.2115Z" fill="#FCFAF5"/>
<path d="M19.4018 24.9952H10.0665C7.39827 24.9927 4.84002 23.9321 2.95288 22.046C1.06574 20.16 0.00379513 17.6025 0 14.9345L0 10.0655C0.00379246 7.3971 1.06558 4.83911 2.95259 2.95229C4.83959 1.06548 7.39783 0.00379209 10.0665 0L19.4018 0V5.28956H10.0665C8.79905 5.28956 7.58356 5.79299 6.68737 6.68909C5.79117 7.5852 5.2877 8.80057 5.2877 10.0679V14.9345C5.2877 16.2018 5.79117 17.4172 6.68737 18.3133C7.58356 19.2094 8.79905 19.7128 10.0665 19.7128H14.0973V14.6956H9.66027V9.35589H19.4018V24.9952Z" fill="#FCFAF5"/>
<path d="M35.8479 19.7057V0H31.2101L23.0121 6.82817L26.4743 10.8658L30.5554 7.43263V19.7057H26.2665V25H40.1392V19.7057H35.8479Z" fill="#FCFAF5"/>
<path d="M61.0511 24.9952H44.2036V14.7219C44.2032 14.0175 44.3417 13.32 44.611 12.6692C44.8802 12.0183 45.2751 11.4268 45.773 10.9285C46.2709 10.4303 46.862 10.0349 47.5127 9.76508C48.1634 9.49525 48.8609 9.3562 49.5653 9.35589H55.7204V5.29434H44.2036V0H55.6487C57.0713 0 58.4357 0.565095 59.4417 1.57097C60.4477 2.57685 61.0128 3.94111 61.0128 5.36363V9.34155C61.0128 10.7643 60.4478 12.1288 59.4419 13.1351C58.436 14.1413 57.0716 14.7069 55.6487 14.7076H49.4913V19.7057H61.0511V24.9952Z" fill="#FCFAF5"/>
<path d="M110.26 24.7013H98.6384C96.4726 24.6994 94.3959 23.8386 92.8639 22.3077C91.332 20.7768 90.4699 18.7009 90.4667 16.5352V0.289062H95.9074V16.5352C95.9086 17.2591 96.1968 17.953 96.7087 18.4648C97.2206 18.9767 97.9145 19.2648 98.6384 19.266H104.822V0.293841H110.26V24.7013Z" fill="#FCFAF5"/>
</svg>
