<svg width="20" height="31" viewBox="0 0 20 31" fill="none" xmlns="http://www.w3.org/2000/svg">
<path d="M10.0079 31.0005L9.42823 29.9648C8.71945 28.6979 7.99665 27.3826 7.2982 26.1112C6.58868 24.8194 5.85409 23.4837 5.14383 22.2153C4.73302 21.4827 4.31114 20.7394 3.90254 20.0181C3.03962 18.5027 2.14792 16.9306 1.30934 15.3592C-0.296298 12.3543 -0.432744 8.91749 0.929501 5.93151C2.29175 2.94554 4.9683 0.839985 8.25922 0.180814C11.2315 -0.414713 14.2857 0.483881 16.6407 2.64096C18.9957 4.79804 20.2104 7.81735 19.9707 10.917C19.8387 12.6217 19.3541 14.203 18.489 15.7509C16.8538 18.6778 15.1966 21.6607 13.5939 24.5398C12.6434 26.2481 11.692 27.9564 10.7396 29.6647L10.7167 29.7087C10.6894 29.7609 10.6481 29.8397 10.581 29.961L10.0079 31.0005ZM10.0655 1.36429C9.54418 1.36357 9.02403 1.41432 8.5122 1.51583C5.64241 2.09393 3.31767 3.91384 2.1317 6.51037C0.945727 9.1069 1.07554 12.0845 2.47392 14.7061C3.30366 16.2616 4.19092 17.8231 5.04869 19.3331C5.45802 20.0537 5.88211 20.7985 6.2944 21.5349C7.00539 22.8063 7.74294 24.1466 8.45393 25.4415C8.9621 26.3651 9.48207 27.3122 10.0028 28.2448C10.816 26.7841 11.6291 25.323 12.4418 23.8617C14.0445 20.9826 15.7025 17.9997 17.3384 15.0728C18.1032 13.7029 18.5317 12.3088 18.6475 10.8094C18.854 8.1386 17.8008 5.53222 15.7571 3.65927C14.1249 2.16287 12.1129 1.36429 10.0655 1.36429ZM9.99171 15.807C7.0644 15.8077 4.66516 13.4112 4.64009 10.4563C4.62681 8.89854 5.18513 7.4514 6.21253 6.3793C6.69093 5.87712 7.2616 5.4775 7.89146 5.20359C8.52133 4.92969 9.19785 4.78695 9.88182 4.78365C10.6044 4.77198 11.3219 4.90782 11.993 5.18329C12.664 5.45876 13.2751 5.86839 13.7908 6.38839C14.285 6.89071 14.6771 7.4889 14.9444 8.14821C15.2117 8.80752 15.3488 9.51481 15.3478 10.229C15.3603 13.3423 13.0215 15.7941 10.0242 15.81L9.99171 15.807ZM9.91796 6.14669H9.88772C9.37891 6.14953 8.87572 6.25607 8.40728 6.46013C7.93885 6.66419 7.51449 6.96172 7.1588 7.33547C6.37996 8.14694 5.95734 9.25086 5.96767 10.4419C5.98611 12.652 7.79088 14.4424 9.9954 14.4424H10.0168C10.5478 14.445 11.0739 14.3384 11.5642 14.1291C12.0545 13.9197 12.4991 13.6118 12.8718 13.2233C13.6251 12.4205 14.038 11.3439 14.0202 10.229C14.0209 9.69446 13.9183 9.16508 13.7182 8.67162C13.5182 8.17815 13.2247 7.73042 12.8549 7.35442C12.0717 6.56879 11.0169 6.13468 9.92238 6.14745L9.91796 6.14669Z" fill="black"/>
</svg>
