<svg width="33" height="30" viewBox="0 0 33 30" fill="none" xmlns="http://www.w3.org/2000/svg">
<path d="M33 13.9918H0V15.3092H33V13.9918Z" fill="black"/>
<path d="M27.9048 19.9449H4.93221L2.48828 15.1109L3.66732 14.5174L5.74514 18.6275H27.1022L29.3355 14.3344L30.508 14.9411L27.9048 19.9449Z" fill="black"/>
<path d="M11.1663 19.8424H9.8457V29.9268H11.1663V19.8424Z" fill="black"/>
<path d="M23.0345 19.5504H21.7139V30H23.0345V19.5504Z" fill="black"/>
<path d="M16.5597 8.33228C15.7336 8.33228 14.926 8.0879 14.2391 7.63005C13.5522 7.17219 13.0168 6.52143 12.7007 5.76005C12.3846 4.99868 12.3019 4.16089 12.4631 3.35264C12.6244 2.5444 13.0222 1.802 13.6065 1.21933C14.1907 0.636657 14.935 0.239892 15.7453 0.0792083C16.5556 -0.0814752 17.3954 0.0011402 18.1587 0.316607C18.9219 0.632073 19.5742 1.16622 20.033 1.8515C20.4919 2.53677 20.7368 3.3424 20.7366 4.16649C20.7351 5.27098 20.2945 6.32978 19.5115 7.1107C18.7285 7.89162 17.667 8.33093 16.5597 8.33228ZM16.5597 1.31733C15.9948 1.31733 15.4426 1.48443 14.9729 1.7975C14.5032 2.11057 14.1371 2.55555 13.9209 3.07617C13.7047 3.59678 13.6481 4.16965 13.7583 4.72234C13.8686 5.27502 14.1406 5.78269 14.54 6.18115C14.9395 6.57961 15.4484 6.85097 16.0025 6.96091C16.5566 7.07084 17.1309 7.01442 17.6528 6.79877C18.1747 6.58313 18.6208 6.21794 18.9346 5.7494C19.2485 5.28086 19.416 4.73 19.416 4.16649C19.4146 3.41126 19.1133 2.68736 18.5779 2.15333C18.0425 1.6193 17.3168 1.31869 16.5597 1.31733Z" fill="black"/>
<path d="M22.6419 15.2016H10.4795V12.515C10.4809 11.1922 11.0083 9.92408 11.946 8.98884C12.8837 8.05361 14.1551 7.52769 15.4811 7.52653H17.6433C18.9688 7.52847 20.2394 8.05472 21.1765 8.98988C22.1135 9.92503 22.6405 11.1927 22.6419 12.515V15.2016ZM11.8001 13.8843H21.3212V12.515C21.3203 11.5418 20.9323 10.6087 20.2425 9.92045C19.5527 9.23222 18.6174 8.84506 17.6418 8.84389H15.4811C14.5052 8.84467 13.5695 9.23167 12.8794 9.91993C12.1893 10.6082 11.8011 11.5415 11.8001 12.515V13.8843Z" fill="black"/>
<path d="M27.536 14.5752L26.4251 13.8623L28.5536 10.5594L25.3818 8.19839L26.172 7.14231L30.3306 10.2381L27.536 14.5752Z" fill="black"/>
<path d="M25.4489 9.09268C25.0911 9.09268 24.7413 8.98683 24.4437 8.78851C24.1462 8.5902 23.9143 8.30833 23.7774 7.97855C23.6404 7.64877 23.6046 7.28589 23.6744 6.93579C23.7442 6.5857 23.9165 6.26412 24.1696 6.01171C24.4226 5.75931 24.745 5.58742 25.096 5.51778C25.4469 5.44815 25.8107 5.48389 26.1413 5.62049C26.4719 5.75709 26.7545 5.98841 26.9533 6.28521C27.1521 6.582 27.2582 6.93094 27.2582 7.28789C27.2578 7.76643 27.0671 8.22526 26.7279 8.56364C26.3886 8.90202 25.9287 9.09229 25.4489 9.09268ZM25.4489 6.80047C25.3523 6.80047 25.2578 6.82905 25.1775 6.88261C25.0971 6.93617 25.0345 7.0123 24.9975 7.10136C24.9605 7.19043 24.9508 7.28843 24.9697 7.38298C24.9885 7.47753 25.0351 7.56438 25.1034 7.63255C25.1718 7.70072 25.2588 7.74714 25.3536 7.76595C25.4484 7.78476 25.5466 7.7751 25.6359 7.73821C25.7252 7.70132 25.8015 7.63885 25.8552 7.55869C25.9089 7.47853 25.9376 7.38429 25.9376 7.28789C25.9374 7.15868 25.8858 7.03481 25.7942 6.94344C25.7026 6.85208 25.5785 6.80066 25.4489 6.80047Z" fill="black"/>
</svg>
