<svg width="88" height="24" viewBox="0 0 88 24" fill="none" xmlns="http://www.w3.org/2000/svg">
<path d="M49.848 21.9297H45.7586L35.5669 10.115V21.9297H30.604V1.53052H34.7232L44.9169 13.7075V1.53052H49.848V21.9297Z" fill="#FCFAF5"/>
<path d="M75.4683 1.53052H70.6563V21.9297H75.4683V1.53052Z" fill="#FCFAF5"/>
<path d="M87.8814 17.4801C87.2469 17.8389 86.5305 18.029 85.801 18.0324C84.4571 18.0324 83.7861 17.2941 83.7861 15.8076V10.5108H87.8814V6.64516H83.792V1.53052H78.982V16.3004C78.982 18.2877 79.5081 19.7993 80.5602 20.8351C81.6123 21.871 83.0906 22.3883 84.995 22.387C85.9842 22.3779 86.963 22.1852 87.8814 21.8189V17.4801Z" fill="#FCFAF5"/>
<path d="M58.4199 10.788C58.9858 10.3724 59.6704 10.1483 60.3733 10.1486C61.0573 10.1328 61.7267 10.3476 62.273 10.7583C62.8467 11.2107 63.2498 11.8435 63.4165 12.5536H57.1851C57.3796 11.8404 57.816 11.2165 58.4199 10.788ZM63.5197 16.7914C62.8752 17.9209 61.8165 18.487 60.3435 18.4896C59.5752 18.5038 58.8314 18.22 58.269 17.6979C57.6578 17.1198 57.247 16.3628 57.0958 15.5364H68.161V14.2895C68.1213 11.8522 67.3597 9.89265 65.8761 8.41078C64.3925 6.9289 62.5582 6.18862 60.3733 6.18994C58.1234 6.18994 56.2289 6.95067 54.6898 8.47214C53.1506 9.9936 52.3791 11.9327 52.3751 14.2895C52.3751 16.6647 53.1466 18.6077 54.6898 20.1186C55.4297 20.8578 56.3121 21.4398 57.2838 21.8297C58.2555 22.2195 59.2963 22.4091 60.3435 22.387C62.1063 22.387 63.6342 21.9858 64.9272 21.1835C66.0172 20.4985 66.897 19.5274 67.4702 18.3768L63.5197 16.7914Z" fill="#FCFAF5"/>
<path d="M22.9929 16.7814C22.8896 16.642 22.7768 16.5097 22.6554 16.3856L16.6424 10.2911V6.6808C17.0122 7.17246 17.4918 7.57151 18.0431 7.84635C18.5944 8.1212 19.2023 8.26429 19.8187 8.26429C20.435 8.26429 21.0429 8.1212 21.5942 7.84635C22.1455 7.57151 22.6251 7.17246 22.9949 6.6808L22.9929 16.7814ZM19.8167 22.4721C18.9686 22.4648 18.1581 22.1225 17.5627 21.5203C16.9673 20.9181 16.6357 20.1052 16.6404 19.2596V19.2497C16.6404 19.2279 16.6404 19.2061 16.6404 19.1824C16.6404 19.0913 16.6404 19.0062 16.6543 18.9191C16.6543 18.9092 16.6543 18.8934 16.6543 18.8796C16.7419 18.1026 17.1125 17.3847 17.6958 16.8622C18.2791 16.3397 19.0345 16.049 19.8187 16.0451C19.9248 16.0441 20.0309 16.0501 20.1363 16.0629C20.1568 16.061 20.1774 16.061 20.1978 16.0629C20.2852 16.0629 20.3686 16.0827 20.4519 16.1005L20.4916 16.1124C20.5829 16.1342 20.6723 16.156 20.7576 16.1797H20.7715C21.1609 16.3082 21.5221 16.5097 21.8356 16.7735C22.3409 17.1948 22.705 17.76 22.879 18.3934C23.053 19.0267 23.0287 19.698 22.8092 20.3172C22.5897 20.9365 22.1857 21.474 21.6511 21.8577C21.1166 22.2414 20.4772 22.453 19.8187 22.4642L19.8167 22.4721ZM8.96387 12.8148V4.20067C8.96213 4.02792 8.9502 3.85542 8.92814 3.68406L15.8027 10.6474V19.2596C15.8039 19.433 15.8151 19.6061 15.8365 19.7782L8.96387 12.8148ZM8.12217 16.7735C7.75235 16.2819 7.2728 15.8828 6.72151 15.608C6.17021 15.3331 5.5623 15.19 4.94594 15.19C4.32957 15.19 3.72166 15.3331 3.17037 15.608C2.61907 15.8828 2.13952 16.2819 1.7697 16.7735V6.67882C1.87296 6.81777 1.98502 6.95 2.10519 7.07469L8.12019 13.1691L8.12217 16.7735ZM4.94594 22.4642C4.10502 22.4433 3.30557 22.0957 2.71819 21.4953C2.13082 20.8949 1.80205 20.0894 1.80205 19.2507C1.80205 18.412 2.13082 17.6065 2.71819 17.0061C3.30557 16.4057 4.10502 16.058 4.94594 16.0372C5.78685 16.058 6.5863 16.4057 7.17368 17.0061C7.76105 17.6065 8.08982 18.412 8.08982 19.2507C8.08982 20.0894 7.76105 20.8949 7.17368 21.4953C6.5863 22.0957 5.78685 22.4433 4.94594 22.4642ZM8.12217 11.9558L7.28444 11.1066L4.44171 8.23459L4.50523 8.25043H4.57273C4.69581 8.25043 4.81889 8.26824 4.94395 8.26824C5.06901 8.26824 5.19209 8.26824 5.31517 8.25043H5.37671C5.49384 8.24053 5.60699 8.22074 5.72014 8.20095C5.74222 8.19402 5.76478 8.18873 5.78764 8.18511C5.9016 8.16125 6.01424 8.13152 6.12511 8.09604L6.16283 8.08218C6.27003 8.04854 6.37723 8.01093 6.48045 7.96738C6.49157 7.96047 6.5036 7.95514 6.51619 7.95155C6.62123 7.9066 6.72392 7.85639 6.82389 7.80112L6.88145 7.76945C6.98014 7.7164 7.0756 7.65758 7.16732 7.59328C7.18478 7.58368 7.20082 7.57168 7.21496 7.55766C7.31223 7.49036 7.41347 7.42504 7.49685 7.34982C7.58517 7.2767 7.66934 7.19872 7.74896 7.11626C7.76485 7.10241 7.77676 7.08855 7.79264 7.07667C7.87006 6.99552 7.94549 6.91239 8.01497 6.8253L8.05666 6.77581C8.07651 6.75008 8.09636 6.73029 8.11423 6.70456L8.12217 11.9558ZM4.94792 0.986205C5.79631 0.993526 6.60714 1.33606 7.20258 1.93866C7.79802 2.54127 8.12945 3.35475 8.12416 4.20067C8.12997 5.04694 7.79878 5.86093 7.20329 6.46396C6.60779 7.067 5.79665 7.4098 4.94792 7.41712C4.84111 7.41821 4.73434 7.41226 4.62831 7.39931C4.60648 7.39931 4.58464 7.39931 4.56082 7.39931C4.47814 7.39029 4.39598 7.37708 4.31466 7.35972L4.26304 7.34982C4.17768 7.32805 4.09232 7.30628 4.00696 7.28055C3.99839 7.27943 3.98972 7.27943 3.98115 7.28055C3.88984 7.2469 3.80051 7.21523 3.71514 7.1796C3.62238 7.14275 3.53218 7.09977 3.44516 7.05094C3.35187 6.99383 3.26174 6.93172 3.17518 6.86488C3.09379 6.80748 3.01439 6.74612 2.93895 6.68476L2.91711 6.66695C2.55785 6.36361 2.26924 5.9858 2.07142 5.55985C1.87359 5.13391 1.7713 4.67007 1.77168 4.20067C1.7664 3.35475 2.09782 2.54127 2.69326 1.93866C3.2887 1.33606 4.09953 0.993526 4.94792 0.986205ZM20.1879 15.2118C20.0668 15.2118 19.9437 15.194 19.8187 15.194C19.6936 15.194 19.5685 15.194 19.4455 15.2118C19.425 15.21 19.4044 15.21 19.3839 15.2118C19.27 15.2222 19.1566 15.2387 19.0445 15.2613C19.0187 15.2613 18.9948 15.2732 18.967 15.2791C18.8579 15.3048 18.7507 15.3306 18.6435 15.3662C18.6211 15.3717 18.5992 15.3789 18.5779 15.388C18.4853 15.4154 18.3945 15.4484 18.306 15.4869C18.2822 15.4869 18.2583 15.5067 18.2345 15.5127C18.1412 15.5562 18.0479 15.6017 17.9586 15.6492L17.8593 15.7027C17.7759 15.7542 17.6926 15.8036 17.6112 15.8571C17.5794 15.8789 17.5477 15.9046 17.5139 15.9264C17.4504 15.9719 17.3849 16.0194 17.3154 16.0728C17.2459 16.1263 17.238 16.1381 17.1983 16.1698C17.1586 16.2015 17.0871 16.2708 17.0315 16.3242C16.9759 16.3777 16.97 16.3816 16.9402 16.4133C16.8767 16.4786 16.8132 16.5499 16.7536 16.6112C16.7238 16.6449 16.696 16.6805 16.6702 16.7122L16.6345 16.7557V11.4985L20.3229 15.2257H20.2554C20.2329 15.2236 20.2104 15.2236 20.1879 15.2257V15.2118ZM19.8187 0.986205C20.4583 0.976396 21.0864 1.15642 21.6231 1.50339C22.1599 1.85036 22.5811 2.34862 22.8331 2.93483C23.0852 3.52105 23.1568 4.16876 23.0388 4.79563C22.9208 5.42251 22.6185 6.00025 22.1704 6.45542C21.7223 6.9106 21.1486 7.22266 20.5222 7.35195C19.8957 7.48124 19.2449 7.42191 18.6524 7.18151C18.0599 6.94111 17.5525 6.53049 17.1946 6.00183C16.8367 5.47318 16.6445 4.85037 16.6424 4.21255V4.20067C16.6371 3.35475 16.9686 2.54127 17.564 1.93866C18.1594 1.33606 18.9703 0.993526 19.8187 0.986205ZM23.8326 4.20067C23.8445 3.66747 23.7495 3.13727 23.553 2.6412C23.3566 2.14513 23.0628 1.69318 22.6888 1.31188C22.3148 0.930591 21.8681 0.627635 21.3751 0.4208C20.8821 0.213966 20.3526 0.107422 19.8177 0.107422C19.2828 0.107422 18.7533 0.213966 18.2602 0.4208C17.7672 0.627635 17.3206 0.930591 16.9466 1.31188C16.5726 1.69318 16.2787 2.14513 16.0823 2.6412C15.8859 3.13727 15.7908 3.66747 15.8027 4.20067V9.43804L7.78668 1.32269C7.41663 0.946271 6.97492 0.647322 6.48744 0.443385C5.99997 0.239449 5.47656 0.134632 4.94792 0.135083C3.8749 0.143974 2.84928 0.577122 2.09631 1.3394C1.34334 2.10168 0.924565 3.13077 0.931966 4.20067V19.2596C0.924567 20.3293 1.3434 21.3582 2.09643 22.1202C2.84946 22.8821 3.87508 23.3148 4.94792 23.3232C6.02076 23.3148 7.04638 22.8821 7.79941 22.1202C8.55244 21.3582 8.97127 20.3293 8.96387 19.2596V14.0202L16.9779 22.1356C17.348 22.512 17.7897 22.811 18.2772 23.0149C18.7646 23.2188 19.288 23.3237 19.8167 23.3232C20.8892 23.3143 21.9143 22.8814 22.6669 22.1195C23.4195 21.3575 23.8381 20.329 23.8306 19.2596L23.8326 4.20067Z" fill="#FCFAF5"/>
</svg>
