<svg width="305" height="176" viewBox="0 0 305 176" fill="none" xmlns="http://www.w3.org/2000/svg">
<path d="M63.4905 107.108H62.9105V108.099H63.4905V107.108Z" fill="black"/>
<path d="M67.787 102.052L62.5595 107.253L63.2627 107.955L68.4902 102.753L67.787 102.052Z" fill="black"/>
<path d="M77.67 93.3592L62.5782 107.245L63.2533 107.973L78.3451 94.0877L77.67 93.3592Z" fill="black"/>
<path d="M89.862 82.9446L62.5813 107.239L63.2445 107.979L90.5252 83.6839L89.862 82.9446Z" fill="black"/>
<path d="M97.9641 72.5348L62.5606 107.248L63.2586 107.955L98.6621 73.2416L97.9641 72.5348Z" fill="black"/>
<path d="M104.3 62.1152L62.5831 107.301L63.3155 107.973L105.032 62.7864L104.3 62.1152Z" fill="black"/>
<path d="M106.642 47.7411L62.4958 107.294L63.2963 107.883L107.443 48.3302L106.642 47.7411Z" fill="black"/>
<path d="M106.582 33.8737L62.5112 107.36L63.3655 107.869L107.436 34.3823L106.582 33.8737Z" fill="black"/>
<path d="M101.91 24.0886L62.4921 107.402L63.3923 107.825L102.81 24.5114L101.91 24.0886Z" fill="black"/>
<path d="M94.9639 14.9005L62.4393 107.44L63.3785 107.768L95.9031 15.2282L94.9639 14.9005Z" fill="black"/>
<path d="M94.9639 14.9005L62.4393 107.44L63.3785 107.768L95.9031 15.2282L94.9639 14.9005Z" fill="black"/>
<path d="M85.6509 7.41729L62.4106 107.478L63.3802 107.702L86.6204 7.64084L85.6509 7.41729Z" fill="black"/>
<path d="M63.4048 107.659L62.4163 107.548L74.6083 1.70337L75.5968 1.815L63.4048 107.659Z" fill="black"/>
<path d="M67.644 -2.86059e-06L62.4199 107.583L63.4138 107.631L68.638 0.0479147L67.644 -2.86059e-06Z" fill="black"/>
<path d="M61.6718 2.90263L60.6768 2.91907L62.4191 107.613L63.4141 107.597L61.6718 2.90263Z" fill="black"/>
<path d="M53.5404 10.3823L52.5504 10.4822L62.4222 107.655L63.4123 107.555L53.5404 10.3823Z" fill="black"/>
<path d="M41.9169 29.3837L40.9572 29.6458L62.4401 107.729L63.3998 107.467L41.9169 29.3837Z" fill="black"/>
<path d="M27.3225 58.7269L26.5219 59.3157L62.511 107.9L63.3117 107.311L27.3225 58.7269Z" fill="black"/>
<path d="M14.9746 79.9892L14.4843 80.852L62.6677 108.036L63.158 107.173L14.9746 79.9892Z" fill="black"/>
<path d="M5.48406 101.894L5.39404 102.882L62.8619 108.083L62.9519 107.095L5.48406 101.894Z" fill="black"/>
<path d="M62.2068 107.019L0.282898 118.351L0.462023 119.323L62.3859 107.99L62.2068 107.019Z" fill="black"/>
<path d="M62.7182 107.182L0 135.464L0.410306 136.367L63.1285 108.085L62.7182 107.182Z" fill="black"/>
<path d="M62.5833 107.233L9.17694 155.823L9.84797 156.556L63.2544 107.965L62.5833 107.233Z" fill="black"/>
<path d="M62.5443 107.348L19.5071 166.87L20.3145 167.449L63.3517 107.927L62.5443 107.348Z" fill="black"/>
<path d="M62.5008 107.383L28.1929 172.715L29.0747 173.175L63.3825 107.843L62.5008 107.383Z" fill="black"/>
<path d="M62.4166 107.403L34.0485 175.107L34.9668 175.489L63.3349 107.785L62.4166 107.403Z" fill="black"/>
<path d="M62.4356 107.422L39.2318 175.104L40.1735 175.425L63.3773 107.743L62.4356 107.422Z" fill="black"/>
<path d="M62.4237 107.474L43.2922 175.154L44.2501 175.423L63.3816 107.743L62.4237 107.474Z" fill="black"/>
<path d="M62.3915 107.518L50.8426 174.626L51.8234 174.793L63.3723 107.685L62.3915 107.518Z" fill="black"/>
<path d="M63.4159 107.592L62.421 107.609L63.5845 174.702L64.5795 174.685L63.4159 107.592Z" fill="black"/>
<path d="M63.3733 107.425L62.4464 107.786L87.4062 171.409L88.3331 171.048L63.3733 107.425Z" fill="black"/>
<path d="M63.3003 107.284L62.5248 107.905L110.13 166.899L110.905 166.278L63.3003 107.284Z" fill="black"/>
<path d="M63.2117 107.195L62.6103 107.985L129.951 158.877L130.552 158.087L63.2117 107.195Z" fill="black"/>
<path d="M63.1464 107.167L62.6808 108.043L141.629 149.693L142.094 148.816L63.1464 107.167Z" fill="black"/>
<path d="M63.0974 107.15L62.7355 108.074L147.488 141.049L147.85 140.125L63.0974 107.15Z" fill="black"/>
<path d="M62.9853 107.12L62.848 108.102L154.569 120.832L154.706 119.85L62.9853 107.12Z" fill="black"/>
<path d="M153.425 97.2798L62.8626 107.098L62.9703 108.084L153.533 98.2655L153.425 97.2798Z" fill="black"/>
<path d="M153.355 87.4407L62.8038 107.146L63.0161 108.114L153.567 88.4094L153.355 87.4407Z" fill="black"/>
<path d="M153.315 82.1899L62.7935 107.203L63.0594 108.158L153.581 83.1454L153.315 82.1899Z" fill="black"/>
<path d="M152.741 79.3833L62.7585 107.137L63.0528 108.084L153.035 80.3305L152.741 79.3833Z" fill="black"/>
<path d="M152.142 77.0367L62.7593 107.147L63.078 108.086L152.461 77.976L152.142 77.0367Z" fill="black"/>
<path d="M150.987 73.5931L62.7319 107.102L63.0863 108.028L151.341 74.5196L150.987 73.5931Z" fill="black"/>
<path d="M150.984 71.3174L62.7089 107.086L63.0837 108.005L151.359 72.2359L150.984 71.3174Z" fill="black"/>
<path d="M150.376 69.5715L62.7052 107.138L63.0983 108.048L150.769 70.4824L150.376 69.5715Z" fill="black"/>
<path d="M149.778 67.2333L62.7122 107.171L63.1284 108.071L150.194 68.134L149.778 67.2333Z" fill="black"/>
<path d="M149.778 67.2333L62.7122 107.171L63.1284 108.071L150.194 68.134L149.778 67.2333Z" fill="black"/>
<path d="M149.778 67.2333L62.7122 107.171L63.1284 108.071L150.194 68.134L149.778 67.2333Z" fill="black"/>
<path d="M149.778 67.2333L62.7122 107.171L63.1284 108.071L150.194 68.134L149.778 67.2333Z" fill="black"/>
<path d="M149.778 67.2333L62.7122 107.171L63.1284 108.071L150.194 68.134L149.778 67.2333Z" fill="black"/>
<path d="M149.778 67.2333L62.7122 107.171L63.1284 108.071L150.194 68.134L149.778 67.2333Z" fill="black"/>
<path d="M149.778 67.2333L62.7122 107.171L63.1284 108.071L150.194 68.134L149.778 67.2333Z" fill="black"/>
<path d="M181.463 65.332H184.099L190.538 76.5934V65.332H193.002V80.9732H190.366L183.928 69.7577V80.9732H181.463V65.332Z" fill="black"/>
<path d="M202.618 65.332H211.923V67.6302H205.083V71.4716H210.599V73.7961H205.083V78.6224H212.147V80.9469H202.618V65.332Z" fill="black"/>
<path d="M220.741 65.332H223.206V78.6486H230.014V80.9732H220.787L220.741 65.332Z" fill="black"/>
<path d="M234.337 65.332H245.593V67.6302H241.217V80.9469H238.752V67.6302H234.357L234.337 65.332Z" fill="black"/>
<path d="M181.463 91.2693H190.768V93.5938H183.928V97.4352H189.444V99.7597H183.928V104.586H190.993V106.911H181.463V91.2693Z" fill="black"/>
<path d="M194.67 91.2693H199.283C200.233 91.2485 201.178 91.4179 202.061 91.7676C202.944 92.1172 203.747 92.64 204.424 93.3049C205.814 94.6181 206.526 96.5881 206.526 99.0702C206.526 101.552 205.814 103.516 204.424 104.855C203.747 105.52 202.944 106.043 202.061 106.392C201.178 106.742 200.233 106.912 199.283 106.891H194.67V91.2693ZM198.552 104.586C199.233 104.595 199.912 104.507 200.568 104.323C201.192 104.134 201.779 103.838 202.302 103.45C202.859 103.004 203.285 102.417 203.534 101.749C203.847 100.909 203.999 100.018 203.982 99.1227C204.006 98.2175 203.861 97.3157 203.554 96.4633C203.306 95.7899 202.872 95.2002 202.302 94.7626C201.791 94.3509 201.201 94.047 200.568 93.8696C199.925 93.6869 199.26 93.5963 198.591 93.6003H197.155V104.599L198.552 104.586Z" fill="black"/>
<path d="M209.768 91.2693H212.22V101.382C212.165 102.286 212.451 103.179 213.024 103.883C213.687 104.448 214.531 104.758 215.403 104.758C216.275 104.758 217.119 104.448 217.782 103.883C218.355 103.179 218.641 102.286 218.586 101.382V91.2693H221.057V101.277C221.107 102.058 220.993 102.841 220.721 103.576C220.45 104.311 220.028 104.981 219.482 105.545C218.941 106.062 218.301 106.465 217.6 106.73C216.899 106.995 216.152 107.117 215.403 107.088C214.657 107.119 213.912 106.998 213.214 106.732C212.516 106.467 211.88 106.063 211.343 105.545C210.796 104.982 210.372 104.312 210.097 103.577C209.823 102.843 209.704 102.059 209.749 101.277L209.768 91.2693Z" fill="black"/>
<path d="M225.315 91.2693H227.786V97.2776L233.388 91.2693H236.4L230.073 98.2625L236.914 106.911H233.75L227.786 99.2475V106.911H225.315V91.2693Z" fill="black"/>
<path d="M243.24 91.2693H245.573L251.023 106.911H248.513L247.195 103.023H241.593L240.275 106.911H237.79L243.24 91.2693ZM246.47 100.699L244.407 94.3752L242.344 100.699H246.47Z" fill="black"/>
<path d="M250.826 91.2693H262.082V93.5938H257.693V106.911H255.228V93.5872H250.832L250.826 91.2693Z" fill="black"/>
<path d="M264.889 91.2693H267.354V106.911H264.889V91.2693Z" fill="black"/>
<path d="M272.673 91.2693L276.627 103.47L280.581 91.2693H283.217L277.853 106.911H275.388L270.03 91.2693H272.673Z" fill="black"/>
<path d="M285.886 91.2693H288.522L294.954 102.531V91.2693H297.426V106.911H294.79L288.351 95.6885V106.911H285.886V91.2693Z" fill="black"/>
<path d="M302.105 91.2693H304.57V106.911H302.105V91.2693Z" fill="black"/>
<path d="M181.483 117.187H187.111C187.764 117.153 188.416 117.252 189.029 117.477C189.642 117.703 190.203 118.051 190.676 118.5C191.101 118.942 191.433 119.465 191.653 120.036C191.872 120.608 191.975 121.218 191.955 121.829C191.981 122.442 191.88 123.053 191.661 123.626C191.441 124.198 191.106 124.72 190.676 125.159C190.2 125.61 189.637 125.959 189.02 126.185C188.403 126.411 187.747 126.508 187.091 126.472H183.928V132.868H181.463L181.483 117.187ZM187.223 124.141C187.523 124.158 187.824 124.114 188.107 124.01C188.389 123.906 188.647 123.745 188.864 123.537C189.252 123.055 189.463 122.457 189.463 121.839C189.463 121.222 189.252 120.623 188.864 120.142C188.652 119.924 188.396 119.752 188.114 119.639C187.831 119.526 187.527 119.474 187.223 119.485H183.928V124.082L187.223 124.141Z" fill="black"/>
<path d="M195.125 117.187H200.614C201.232 117.148 201.852 117.23 202.437 117.429C203.023 117.629 203.564 117.941 204.028 118.349C204.44 118.761 204.76 119.254 204.968 119.797C205.175 120.34 205.266 120.921 205.234 121.501C205.278 122.456 205.002 123.399 204.45 124.18C203.914 124.93 203.114 125.451 202.209 125.638L206.737 132.861H203.824L199.408 125.842H197.589V132.835H195.125V117.187ZM200.687 123.491C201.232 123.52 201.768 123.345 202.189 122.998C202.551 122.583 202.75 122.051 202.75 121.501C202.75 120.951 202.551 120.42 202.189 120.004C201.762 119.669 201.23 119.495 200.687 119.512H197.589V123.511L200.687 123.491Z" fill="black"/>
<path d="M211.231 119.111C212.591 117.758 214.434 116.997 216.355 116.997C218.277 116.997 220.12 117.758 221.479 119.111C222.87 120.516 223.542 122.486 223.542 125.021C223.542 127.555 222.883 129.538 221.479 130.93C220.11 132.265 218.271 133.012 216.355 133.012C214.44 133.012 212.601 132.265 211.231 130.93C209.861 129.525 209.173 127.555 209.169 125.021C209.164 122.486 209.852 120.516 211.231 119.111ZM213.024 129.236C213.451 129.694 213.968 130.059 214.543 130.309C215.118 130.559 215.738 130.688 216.365 130.688C216.992 130.688 217.613 130.559 218.188 130.309C218.762 130.059 219.279 129.694 219.706 129.236C220.603 128.271 221.024 126.866 221.024 125.008C221.134 123.485 220.663 121.977 219.706 120.785C219.279 120.327 218.762 119.962 218.188 119.713C217.613 119.463 216.992 119.334 216.365 119.334C215.738 119.334 215.118 119.463 214.543 119.713C213.968 119.962 213.451 120.327 213.024 120.785C212.067 121.977 211.596 123.485 211.706 125.008C211.679 126.866 212.128 128.271 213.024 129.236Z" fill="black"/>
<path d="M226.303 125.034C226.303 122.44 227.002 120.437 228.412 119.124C229.085 118.445 229.889 117.91 230.777 117.552C231.664 117.194 232.615 117.021 233.572 117.043C235.052 116.998 236.501 117.461 237.678 118.356C238.757 119.25 239.506 120.477 239.807 121.843L237.54 122.558C236.802 120.411 235.457 119.341 233.546 119.341C232.901 119.318 232.258 119.439 231.665 119.694C231.073 119.95 230.544 120.334 230.119 120.818C229.243 121.777 228.801 123.182 228.801 125.014C228.801 126.846 229.229 128.297 230.119 129.263C230.558 129.732 231.095 130.101 231.691 130.343C232.287 130.586 232.929 130.697 233.572 130.668C234.073 130.697 234.574 130.623 235.045 130.45C235.516 130.277 235.945 130.009 236.307 129.663C236.953 128.963 237.342 128.064 237.408 127.115H234.376V124.922H239.899V132.802H237.751L237.573 130.878C237.182 131.485 236.651 131.989 236.024 132.349C235.242 132.805 234.347 133.032 233.441 133.005C232.506 133.024 231.577 132.853 230.71 132.503C229.844 132.153 229.057 131.632 228.399 130.97C227.009 129.584 226.31 127.621 226.31 125.001L226.303 125.034Z" fill="black"/>
<path d="M243.853 117.187H249.35C249.966 117.148 250.585 117.23 251.17 117.429C251.754 117.629 252.294 117.942 252.757 118.349C253.171 118.76 253.493 119.253 253.702 119.796C253.911 120.339 254.002 120.92 253.969 121.501C254.014 122.456 253.738 123.399 253.185 124.18C252.649 124.93 251.849 125.451 250.945 125.638L255.472 132.861H252.559L248.137 125.842H246.325V132.835H243.853V117.187ZM249.416 123.491C249.961 123.522 250.498 123.346 250.918 122.998C251.28 122.583 251.479 122.051 251.479 121.501C251.479 120.951 251.28 120.42 250.918 120.004C250.492 119.667 249.959 119.492 249.416 119.512H246.325V123.51L249.416 123.491Z" fill="black"/>
<path d="M262.418 117.187H264.751L270.214 132.835H267.703L266.385 128.941H260.777L259.459 132.835H256.968L262.418 117.187ZM265.647 126.616L263.584 120.293L261.522 126.616H265.647Z" fill="black"/>
<path d="M272.962 117.187H275.882L279.783 127.601L283.685 117.187H286.604V132.835H284.133V122.283L280.66 131.403H278.907L275.434 122.283V132.835H272.962V117.187Z" fill="black"/>
</svg>
