<svg id="logo-supernova" viewBox="0 0 236 267" fill="none" xmlns="http://www.w3.org/2000/svg">
    <style>
        #logo-supernova path {
            stroke: black;
            stroke-width: 1.3;
            stroke-miterlimit: 10;
        }
    </style>

    <path class="dancing" d="M198 241.6L95.3 163.5"/>
    <path class="dancing" d="M134.6 260.5L96.3 164"/>
    <path class="dancing" d="M97.1 266.1L96.3 165.8"/>
    <path class="dancing" d="M66.3 266.8L97.6 161.1"/>
    <path class="dancing" d="M61 266.4L95.6 164.4"/>
    <path class="dancing" d="M52.2 266.7L94.9 167.8"/>
    <path class="dancing" d="M44.1 263.7L95.9 166.1"/>
    <path class="dancing" d="M15 237.7L95.5 164.6"/>
    <path class="dancing" d="M0.899994 181.1L95.3 163.7"/>
    <path class="dancing" d="M9.2 155.8L93.7 163.8"/>
    <path class="dancing" d="M23 122.5L97.2 164.7"/>
    <path class="dancing" d="M41.2 90L96.4 164.2"/>
    <path class="dancing" d="M62.7 45.2L96.1 163.4"/>
    <path class="dancing" d="M80.3 16L96.1 161.9"/>
    <path class="dancing" d="M93.1 4L96.6 163.7"/>
    <path class="dancing" d="M104.7 0.100006L96.5 161.7"/>
    <path class="dancing" d="M130.5 11.3L96.5 160"/>
    <path class="dancing" d="M146.1 23.2L96.5 162.7"/>
    <path class="dancing" d="M155.2 36.7L96.8 162.4"/>
    <path class="dancing" d="M163.6 52.4L95.8 164.5"/>
    <path class="dancing" d="M163.6 73.6L96.2 163.1"/>
    <path class="dancing" d="M160.2 94.4L96.6 163.7"/>
    <path class="dancing" d="M149.7 111.2L97 163.5"/>
    <path class="dancing" d="M227.8 102.9L96.3 163.5"/>
    <path class="dancing" d="M228.9 106.5L94.7 163.3"/>
    <path class="dancing" d="M229.7 109.1L97.5 163.5"/>
    <path class="dancing" d="M230 112.6L96.8 164.2"/>
    <path class="dancing" d="M232.4 117.8L115.1 157.3"/>
    <path class="dancing" d="M232.6 121.4L101.1 162.3"/>
    <path class="dancing" d="M233.7 126.1L96.1 164"/>
    <path class="dancing" d="M233.3 133.9L95.8 164.2"/>
    <path class="dancing" d="M233.5 149L95.8 164.2"/>
    <path class="dancing" d="M235.1 184.1L95.3 164"/>
    <path class="dancing" d="M224.4 214.8L97.3 164.5"/>
    <path class="dancing" d="M215.4 227.3L98.2 164.7"/>
    <g>
        <path d="M96.8 163.4L114.8 3" stroke="black" stroke-width="1.3" stroke-miterlimit="10"/>
        <path d="M95.8 163.8L0.899994 207.1" stroke="black" stroke-width="1.3" stroke-miterlimit="10"/>
        <path d="M96.2 164.3L30.5 255.4" stroke="black" stroke-width="1.3" stroke-miterlimit="10"/>
        <path d="M96.6 165.3L77.7 266" stroke="black" stroke-width="1.3" stroke-miterlimit="10"/>
        <path d="M97 163.8L167.9 253.4" stroke="black" stroke-width="1.3" stroke-miterlimit="10"/>
    </g>
</svg>
