<svg version="1.1" id="logo-supernova" xmlns="http://www.w3.org/2000/svg" xmlns:xlink="http://www.w3.org/1999/xlink" x="0px" y="0px"
     viewBox="0 0 462.1 267.2" style="enable-background:new 0 0 462.1 267.2;" xml:space="preserve">
    <style type="text/css">
        #logo-supernova path {
            stroke: black;
            stroke-width: 1.3;
            stroke-miterlimit: 10;
        }
    </style>

    <g>
        <path d="M275.3,99.5h4l9.8,17.2V99.5h3.7v23.8h-4l-9.8-17.1v17.1h-3.7V99.5z"/>
        <path d="M307.4,99.5h14.1v3.5h-10.4v5.8h8.4v3.5h-8.4v7.3h10.7v3.5h-14.5V99.5z"/>
        <path d="M334.9,99.5h3.7v20.3H349v3.5h-14L334.9,99.5z"/>
        <path d="M355.6,99.5h17.1v3.5H366v20.3h-3.7V103h-6.7L355.6,99.5z"/>
        <path d="M275.3,139h14.1v3.5h-10.4v5.9h8.4v3.5h-8.4v7.4h10.7v3.5h-14.5V139z"/>
        <path d="M295.4,139h7c2.9-0.1,5.7,1.1,7.8,3.1c2.1,2,3.2,5,3.2,8.8s-1.1,6.8-3.2,8.8c-2.1,2-4.9,3.2-7.8,3.1h-7V139z M301.3,159.3
        c1,0,2.1-0.1,3.1-0.4c0.9-0.3,1.8-0.7,2.6-1.3c0.8-0.7,1.5-1.6,1.9-2.6c0.5-1.3,0.7-2.6,0.7-4c0-1.4-0.2-2.8-0.6-4.1
        c-0.4-1-1-1.9-1.9-2.6c-0.8-0.6-1.7-1.1-2.6-1.4c-1-0.3-2-0.4-3-0.4h-2.2v16.8L301.3,159.3z"/>
        <path d="M318.3,139h3.7v15.4c-0.1,1.4,0.4,2.7,1.2,3.8c2.1,1.8,5.1,1.8,7.2,0c0.9-1.1,1.3-2.4,1.2-3.8V139h3.8v15.2
        c0.2,2.4-0.7,4.8-2.4,6.5c-1.7,1.6-3.9,2.4-6.2,2.4c-2.3,0.1-4.5-0.8-6.2-2.4c-1.7-1.7-2.6-4.1-2.4-6.5L318.3,139z"/>
        <path d="M341.9,139h3.8v9.1l8.5-9.1h4.6l-9.6,10.6l10.4,13.2h-4.8l-9-11.7v11.7h-3.8L341.9,139z"/>
        <path d="M369.1,139h3.5l8.3,23.8h-3.8l-2-5.9h-8.5l-2,5.9h-3.8L369.1,139z M374,153.4l-3.1-9.6l-3.1,9.6H374z"/>
        <path d="M380.6,139h17.1v3.5H391v20.3h-3.7v-20.3h-6.7L380.6,139z"/>
        <path d="M401.9,139h3.7v23.8h-3.7V139z"/>
        <path d="M413.7,139l6,18.6l6-18.6h4l-8.1,23.8h-3.7l-8.1-23.8H413.7z"/>
        <path d="M433.8,139h4l9.8,17.1V139h3.8v23.8h-4l-9.8-17.1v17.1h-3.7L433.8,139z"/>
        <path d="M458.4,139h3.7v23.8h-3.7V139z"/>
        <path d="M275.4,178.5h8.5c2-0.1,4,0.6,5.4,2c1.3,1.4,2,3.2,1.9,5.1c0.1,1.9-0.6,3.7-1.9,5.1c-1.5,1.4-3.4,2.1-5.4,2h-4.8v9.7h-3.7
        L275.4,178.5z M284.1,189.1c0.9,0.1,1.8-0.3,2.5-0.9c1.2-1.5,1.2-3.7,0-5.2c-0.7-0.7-1.6-1-2.5-1h-5v7L284.1,189.1z"/>
        <path d="M296.1,178.5h8.3c1.9-0.1,3.8,0.5,5.2,1.8c1.3,1.3,1.9,3,1.8,4.8c0.1,1.5-0.4,2.9-1.2,4.1c-0.8,1.1-2,1.9-3.4,2.2l6.9,11
        h-4.4l-6.7-10.7h-2.8v10.6h-3.7V178.5z M304.5,188.1c0.8,0,1.6-0.2,2.3-0.8c1.1-1.3,1.1-3.3,0-4.6c-0.6-0.5-1.5-0.8-2.3-0.8h-4.7
        v6.1L304.5,188.1z"/>
        <path d="M320.5,181.4c4.3-4.3,11.3-4.3,15.5,0c2.1,2.1,3.1,5.1,3.1,9s-1,6.9-3.1,9c-4.3,4.2-11.2,4.2-15.5,0c-2.1-2.1-3.1-5.1-3.1-9
        S318.4,183.5,320.5,181.4z M323.2,196.8c2.6,2.8,7,3,9.8,0.4c0.1-0.1,0.2-0.2,0.4-0.4c1.4-1.5,2-3.6,2-6.4c0.2-2.3-0.5-4.6-2-6.4
        c-2.6-2.8-7-3-9.8-0.4c-0.1,0.1-0.2,0.2-0.4,0.4c-1.5,1.8-2.2,4.1-2,6.4C321.2,193.2,321.9,195.4,323.2,196.8L323.2,196.8z"/>
        <path d="M343.4,190.4c0-3.9,1.1-7,3.2-9c2.1-2.1,4.9-3.2,7.8-3.2c2.2-0.1,4.4,0.6,6.2,2c1.6,1.4,2.8,3.2,3.2,5.3l-3.4,1.1
        c-1.1-3.3-3.2-4.9-6.1-4.9c-2-0.1-3.9,0.8-5.2,2.2c-1.3,1.5-2,3.6-2,6.4s0.6,5,2,6.5c1.3,1.4,3.3,2.2,5.2,2.1c1.5,0.1,3-0.5,4.1-1.5
        c1-1.1,1.6-2.4,1.7-3.9h-4.6v-3.3h8.4v12h-3.3l-0.3-2.9c-0.6,0.9-1.4,1.7-2.4,2.2c-1.2,0.7-2.5,1-3.9,1c-2.9,0.1-5.6-1.1-7.6-3.1
        C344.4,197.4,343.4,194.4,343.4,190.4L343.4,190.4z"/>
        <path d="M370,178.5h8.3c1.9-0.1,3.8,0.5,5.2,1.8c1.3,1.3,1.9,3,1.8,4.8c0.1,1.5-0.4,2.9-1.2,4.1c-0.8,1.1-2,1.9-3.4,2.2l6.9,11h-4.4
        l-6.7-10.7h-2.8v10.6H370V178.5z M378.4,188.1c0.8,0,1.6-0.2,2.3-0.8c1.1-1.3,1.1-3.3,0-4.6c-0.6-0.5-1.5-0.8-2.3-0.8h-4.7v6.1
        L378.4,188.1z"/>
        <path d="M398.2,178.5h3.5l8.3,23.8h-3.8l-2-5.9h-8.5l-2,5.9h-3.8L398.2,178.5z M403.1,192.8l-3.1-9.6l-3.1,9.6H403.1z"/>
        <path d="M414.2,178.5h4.4l5.9,15.9l5.9-15.9h4.4v23.8h-3.8v-16.1l-5.3,13.9h-2.7l-5.3-13.9v16.1h-3.8L414.2,178.5z"/>
    </g>

    <path class="st0 dancing" d="M197.1,241.7L94.4,163.6"/>
    <path class="st0 dancing" d="M133.7,260.6l-38.3-96.5"/>
    <path class="st0 dancing" d="M96.2,266.2l-0.8-100.3"/>
    <path class="st0 dancing" d="M65.4,266.9l31.3-105.7"/>
    <path class="st0 dancing" d="M60.1,266.5l34.6-102"/>
    <path class="st0 dancing" d="M51.3,266.8L94,167.9"/>
    <path class="st0 dancing" d="M43.2,263.8L95,166.2"/>
    <path class="st0 dancing" d="M14.1,237.8l80.5-73.1"/>
    <path class="st0 dancing" d="M0,181.2l94.4-17.4"/>
    <path class="st0 dancing" d="M8.3,155.9l84.5,8"/>
    <path class="st0 dancing" d="M22.1,122.6l74.2,42.2"/>
    <path class="st0 dancing" d="M40.3,90.1l55.2,74.2"/>
    <path class="st0 dancing" d="M61.8,45.3l33.4,118.2"/>
    <path class="st0 dancing" d="M79.4,16.1L95.2,162"/>
    <path class="st0 dancing" d="M92.2,4.1l3.5,159.7"/>
    <path class="st0 dancing" d="M103.8,0.2l-8.2,161.6"/>
    <path class="st0 dancing" d="M129.6,11.4l-34,148.7"/>
    <path class="st0 dancing" d="M145.2,23.3L95.6,162.8"/>
    <path class="st0 dancing" d="M154.3,36.8L95.9,162.5"/>
    <path class="st0 dancing" d="M162.7,52.5L94.9,164.6"/>
    <path class="st0 dancing" d="M162.7,73.7l-67.4,89.5"/>
    <path class="st0 dancing" d="M159.3,94.5l-63.6,69.3"/>
    <path class="st0 dancing" d="M148.8,111.3l-52.7,52.3"/>
    <path class="st0 dancing" d="M226.9,103L95.4,163.6"/>
    <path class="st0 dancing" d="M228,106.6L93.8,163.4"/>
    <path class="st0 dancing" d="M228.8,109.2L96.6,163.6"/>
    <path class="st0 dancing" d="M229.1,112.7L95.9,164.3"/>
    <path class="st0 dancing" d="M231.5,117.9l-117.3,39.5"/>
    <path class="st0 dancing" d="M231.7,121.5l-131.5,40.9"/>
    <path class="st0 dancing" d="M232.8,126.2L95.2,164.1"/>
    <path class="st0 dancing" d="M232.4,134L94.9,164.3"/>
    <path class="st0 dancing" d="M232.6,149.1L94.9,164.3"/>
    <path class="st0 dancing" d="M234.2,184.2L94.4,164.1"/>
    <path class="st0 dancing" d="M223.5,214.9L96.4,164.6"/>
    <path class="st0 dancing" d="M214.5,227.4L97.3,164.8"/>
    <g>
        <path class="st0" d="M95.9,163.5l18-160.4"/>
        <path class="st0" d="M94.9,163.9L0,207.2"/>
        <path class="st0" d="M95.3,164.4l-65.7,91.1"/>
        <path class="st0" d="M95.7,165.4L76.8,266.1"/>
        <path class="st0" d="M96.1,163.9l70.9,89.6"/>
    </g>
</svg>
