<svg width="171" height="31" viewBox="0 0 171 31" fill="none" xmlns="http://www.w3.org/2000/svg">
<path d="M7.71259 5.68265L5.69594 7.69409L23.3643 25.3168L25.3809 23.3053L7.71259 5.68265Z" fill="#FCFAF5"/>
<path d="M23.3622 5.68241L5.69594 23.303L7.71259 25.3144L25.3788 7.69385L23.3622 5.68241Z" fill="#FCFAF5"/>
<path d="M8.87713 13.876H0V16.7176H8.87713V13.876Z" fill="#FCFAF5"/>
<path d="M31.0774 13.876H22.1973V16.7176H31.0774V13.876Z" fill="#FCFAF5"/>
<path d="M16.761 0H13.909V8.85714H16.761V0Z" fill="#FCFAF5"/>
<path d="M16.761 22.1399H13.909V30.997H16.761V22.1399Z" fill="#FCFAF5"/>
<path d="M50.5446 5.69214H55.065V25.3048H50.3186L43.2407 12.6984V25.3048H38.6906V5.69214H43.437L50.5446 18.4706V5.69214Z" fill="#FCFAF5"/>
<path d="M67.6387 18.5538C67.6387 16.6732 66.3183 15.107 64.3674 15.107C62.4165 15.107 61.1645 16.6732 61.1645 18.5538C61.1645 20.4343 62.4522 22.0005 64.3793 22.0005C66.3064 22.0005 67.6506 20.4551 67.6506 18.5538H67.6387ZM56.891 18.5538C56.891 14.6977 59.7578 11.4348 64.3912 11.4348C69.084 11.4348 71.9211 14.6977 71.9211 18.5538C71.9211 22.4098 69.084 25.6727 64.3912 25.6727C59.7578 25.6727 56.891 22.4098 56.891 18.5538Z" fill="#FCFAF5"/>
<path d="M79.2786 20.0872L82.5945 11.7996H87.0881L80.9648 25.3048H77.5359L71.4958 11.7996H75.9924L79.2786 20.0872Z" fill="#FCFAF5"/>
<path d="M97.4938 18.5539C97.4938 16.703 96.1704 15.1071 94.2611 15.1071C92.3519 15.1071 91.0315 16.703 91.0315 18.5539C91.0315 20.4048 92.3519 22.0006 94.273 22.0006C96.1942 22.0006 97.5057 20.4315 97.5057 18.5539H97.4938ZM101.803 25.305H97.4938V23.4037C96.8455 24.6346 95.1295 25.6402 93.363 25.6402C89.4285 25.6402 86.7609 22.5879 86.7609 18.5539C86.7609 14.5198 89.4375 11.4646 93.363 11.4646C95.1474 11.4646 96.8157 12.5295 97.4938 13.7338V11.7998H101.791L101.803 25.305Z" fill="#FCFAF5"/>
<path d="M113.767 5.69214H109.262V25.3048H113.767V5.69214Z" fill="#FCFAF5"/>
<path d="M127.813 21.3242C127.813 24.5485 125.062 25.6697 121.69 25.6697C117.838 25.6697 115.444 23.9315 115.444 20.7902H119.658C119.658 22.2229 120.551 22.7865 121.82 22.7865C122.861 22.7865 123.59 22.4217 123.59 21.5229C123.59 20.5144 122.525 20.3186 119.968 19.5029C117.719 18.8355 115.78 18.1592 115.78 15.5519C115.78 12.7518 118.085 11.4377 121.764 11.4377C125.698 11.4377 127.608 13.4251 127.608 16.0028H123.376C123.376 14.8815 122.814 14.223 121.606 14.223C120.735 14.223 120.003 14.6146 120.003 15.4303C120.003 16.4062 121.211 16.5752 123.459 17.3346C125.838 18.005 127.813 18.7317 127.813 21.3093" fill="#FCFAF5"/>
<path d="M143.224 25.3048H138.112L133.954 19.6453V25.3048H129.657V5.69214H133.954V17.5155L138.138 11.7996H143.25L137.972 18.5537L143.224 25.3048Z" fill="#FCFAF5"/>
<path d="M166.697 18.5539C166.697 16.703 165.382 15.1071 163.47 15.1071C161.558 15.1071 160.24 16.703 160.24 18.5539C160.24 20.4048 161.558 22.0006 163.47 22.0006C165.382 22.0006 166.697 20.4315 166.697 18.5539ZM171 25.305H166.697V23.4037C166.054 24.6346 164.338 25.6402 162.572 25.6402C158.637 25.6402 155.97 22.5879 155.97 18.5539C155.97 14.5198 158.646 11.4646 162.572 11.4646C164.371 11.4646 166.028 12.5295 166.697 13.7338V11.7998H171V25.305Z" fill="#FCFAF5"/>
<path d="M156.009 12.4138L154.578 15.6944C154.084 15.5595 153.574 15.4936 153.061 15.4987C150.703 15.4987 149.157 16.7623 149.157 20.037V25.305H144.862V11.7998H149.157V13.9859C149.564 13.2503 150.163 12.6377 150.89 12.2124C151.617 11.7871 152.445 11.5646 153.287 11.5684C154.614 11.5684 156.009 12.4049 156.009 12.4049" fill="#FCFAF5"/>
</svg>
