<svg width="49" height="49" viewBox="0 0 49 49" fill="none" xmlns="http://www.w3.org/2000/svg">
<path d="M47.3657 49.0005C47.2556 48.8017 47.127 48.6136 46.9817 48.4388C42.2469 43.6945 37.5074 38.9536 32.7631 34.2161C32.6446 34.0977 32.5119 33.9935 32.3893 33.8873C23.0097 42.0148 10.366 39.1756 4.31374 31.6098C-1.90803 23.8295 -1.35245 12.6851 5.66594 5.66873C12.6843 -1.34761 23.8247 -1.90524 31.607 4.31857C39.1789 10.3728 42.012 23.0186 33.7865 32.5065C34.4748 33.1397 35.1959 33.7627 35.8699 34.4327C39.9674 38.5179 44.0601 42.6031 48.148 46.6883C48.4184 46.929 48.7028 47.1534 48.9998 47.3603V47.5646C48.5245 48.0425 48.0479 48.5191 47.57 48.9944L47.3657 49.0005ZM2.01989 19.3828C2.03118 23.9791 3.86011 28.3843 7.10751 31.6371C10.3549 34.8898 14.7571 36.726 19.3534 36.7449C28.8883 36.7633 36.7013 28.983 36.736 19.4359C36.7707 9.88875 28.9271 2.00226 19.3555 2.02269C14.7597 2.04262 10.3583 3.87922 7.11147 7.13181C3.86461 10.3844 2.0358 14.789 2.02398 19.3848L2.01989 19.3828Z" fill="black"/>
</svg>
